/* XPM */
static char * folder_32x32_xpm[] = {
"32 32 156 2",
"  	c None",
". 	c #898B86",
"+ 	c #878984",
"@ 	c #8C8F8A",
"# 	c #8A8D88",
"$ 	c #F1F1F0",
"% 	c #F8F8F7",
"& 	c #F7F7F7",
"* 	c #D6D7D3",
"= 	c #8D8E89",
"- 	c #8A8B86",
"; 	c #F7F7F6",
"> 	c #EEEEEC",
", 	c #EFEFED",
"' 	c #F5F5F4",
") 	c #E3E3E1",
"! 	c #8F918D",
"~ 	c #888A86",
"{ 	c #898C87",
"] 	c #8A8C87",
"^ 	c #8C8D87",
"/ 	c #F6F6F5",
"( 	c #F4F4F2",
"_ 	c #F1F2F0",
": 	c #8B8C89",
"< 	c #8D8E8B",
"[ 	c #DDE5EC",
"} 	c #D6DEE4",
"| 	c #8D8F8B",
"1 	c #3969A7",
"2 	c #3364A3",
"3 	c #3B68A1",
"4 	c #4672AB",
"5 	c #4571AA",
"6 	c #3364A2",
"7 	c #8DAFD1",
"8 	c #93AFCE",
"9 	c #9FB9D6",
"0 	c #A2BAD7",
"a 	c #A5BDD7",
"b 	c #A7BED7",
"c 	c #ACC1D9",
"d 	c #AEC3DA",
"e 	c #B1C5DB",
"f 	c #B4C7DD",
"g 	c #B7C9DE",
"h 	c #BACCDF",
"i 	c #BDCEE0",
"j 	c #C0D0E3",
"k 	c #C3D3E4",
"l 	c #C4D4E5",
"m 	c #C1D2E4",
"n 	c #BFD1E4",
"o 	c #BCCEE2",
"p 	c #B9CDE2",
"q 	c #B7CBE1",
"r 	c #B5C9E1",
"s 	c #B2C8E0",
"t 	c #AEC5DE",
"u 	c #ACC4DE",
"v 	c #AAC2DD",
"w 	c #A7C0DC",
"x 	c #A6BFDC",
"y 	c #9AB6D4",
"z 	c #95B6D7",
"A 	c #3464A2",
"B 	c #7AA0CD",
"C 	c #81A4CC",
"D 	c #8BADD4",
"E 	c #8AACD3",
"F 	c #79A0CC",
"G 	c #3463A2",
"H 	c #3362A1",
"I 	c #729AC8",
"J 	c #7DA0CA",
"K 	c #87A9D1",
"L 	c #86A8D0",
"M 	c #7399C8",
"N 	c #3363A1",
"O 	c #3361A0",
"P 	c #6A93C3",
"Q 	c #799FC7",
"R 	c #82A7CE",
"S 	c #81A6CD",
"T 	c #6C93C3",
"U 	c #33619F",
"V 	c #3461A0",
"W 	c #638EBF",
"X 	c #759BC6",
"Y 	c #7EA3CC",
"Z 	c #7DA2CB",
"` 	c #34619F",
" .	c #32609D",
"..	c #5D88BA",
"+.	c #7198C5",
"@.	c #7A9FCA",
"#.	c #799EC9",
"$.	c #5D87BB",
"%.	c #325F9C",
"&.	c #2F5F9C",
"*.	c #5682B6",
"=.	c #6D95C2",
"-.	c #769CC7",
";.	c #5681B6",
">.	c #305F9D",
",.	c #305C9B",
"'.	c #517DB3",
").	c #6A91C0",
"!.	c #7298C5",
"~.	c #7197C4",
"{.	c #517CB3",
"].	c #2E5D99",
"^.	c #2E5998",
"/.	c #4B77AE",
"(.	c #678FBE",
"_.	c #6E94C1",
":.	c #6D93C1",
"<.	c #2D5B97",
"[.	c #2B5A96",
"}.	c #4571AB",
"|.	c #638CBE",
"1.	c #6990C0",
"2.	c #4672AA",
"3.	c #2C5995",
"4.	c #285693",
"5.	c #416DA6",
"6.	c #5E87BB",
"7.	c #668DBD",
"8.	c #658CBD",
"9.	c #3C68A3",
"0.	c #5A84B8",
"a.	c #6189BA",
"b.	c #3B69A1",
"c.	c #38639F",
"d.	c #5580B6",
"e.	c #5C85B8",
"f.	c #36639F",
"g.	c #325F9B",
"h.	c #5882B6",
"i.	c #325D9B",
"j.	c #2F5B96",
"k.	c #4C79B0",
"l.	c #547FB3",
"m.	c #2D5B96",
"n.	c #2A5792",
"o.	c #4875AD",
"p.	c #507BB1",
"q.	c #2A5692",
"r.	c #26518C",
"s.	c #4471AB",
"t.	c #4C78AF",
"u.	c #214A87",
"v.	c #264F8A",
"w.	c #2C538C",
"x.	c #2B538B",
"y.	c #214A86",
"                                                                ",
"                                                                ",
"                                                                ",
"                                                                ",
"      . + + + + + + + @                                         ",
"    # $ % % % % % % & * =                                       ",
"    - ; > > > > > > , ' ) ! ~ ~ ~ ~ ~ ~ { { { { { { { { ]       ",
"    ^ / > > > > > > > > ( ; ; ; ; ; ; ; ; ; ; ; ; ; ; ; _ :     ",
"    < [ } } } } } } } } } } } } } } } } } } } } } } } } [ |     ",
"1 2 3 4 5 5 5 5 5 5 5 5 5 5 5 5 5 5 5 5 5 5 5 5 5 5 5 5 4 3 2 1 ",
"6 7 8 9 0 a b c d e f g h i j k l m n o p q r s t u v w x y z 6 ",
"A B C D E E E E E E E E E E E E E E E E E E E E E E E E D C F G ",
"H I J K L L L L L L L L L L L L L L L L L L L L L L L L K J M N ",
"O P Q R S S S S S S S S S S S S S S S S S S S S S S S S R Q T U ",
"V W X Y Z Z Z Z Z Z Z Z Z Z Z Z Z Z Z Z Z Z Z Z Z Z Z Z Y X W ` ",
" ...+.@.#.#.#.#.#.#.#.#.#.#.#.#.#.#.#.#.#.#.#.#.#.#.#.#.@.+.$.%.",
"&.*.=.-.X X X X X X X X X X X X X X X X X X X X X X X X -.=.;.>.",
",.'.).!.~.~.~.~.~.~.~.~.~.~.~.~.~.~.~.~.~.~.~.~.~.~.~.~.!.).{.].",
"^./.(._.:.:.:.:.:.:.:.:.:.:.:.:.:.:.:.:.:.:.:.:.:.:.:.:._.(./.<.",
"[.}.|.).1.1.1.1.1.1.1.1.1.1.1.1.1.1.1.1.1.1.1.1.1.1.1.1.).|.2.3.",
"4.5.6.7.8.8.8.8.8.8.8.8.8.8.8.8.8.8.8.8.8.8.8.8.8.8.8.8.7.6.5.  ",
"  9.0.a.a.a.a.a.a.a.a.a.a.a.a.a.a.a.a.a.a.a.a.a.a.a.a.a.a.0.b.  ",
"  c.d.e.e.e.e.e.e.e.e.e.e.e.e.e.e.e.e.e.e.e.e.e.e.e.e.e.e.d.f.  ",
"  g.'.h.h.h.h.h.h.h.h.h.h.h.h.h.h.h.h.h.h.h.h.h.h.h.h.h.h.'.i.  ",
"  j.k.l.l.l.l.l.l.l.l.l.l.l.l.l.l.l.l.l.l.l.l.l.l.l.l.l.l.k.m.  ",
"  n.o.p.p.p.p.p.p.p.p.p.p.p.p.p.p.p.p.p.p.p.p.p.p.p.p.p.p.o.q.  ",
"  r.s.t.t.t.t.t.t.t.t.t.t.t.t.t.t.t.t.t.t.t.t.t.t.t.t.t.t.s.r.  ",
"  u.v.w.w.w.x.x.x.x.x.x.x.x.x.x.x.x.x.x.x.x.x.x.x.x.w.w.w.v.y.  ",
"                                                                ",
"                                                                ",
"                                                                ",
"                                                                "};
