/* XPM */
static char * folder_16x16_xpm[] = {
"16 16 68 1",
" 	c None",
".	c #8D8E8A",
"+	c #888A85",
"@	c #888A86",
"#	c #898B87",
"$	c #898B88",
"%	c #F6F6F5",
"&	c #F8F8F7",
"*	c #F2F2F0",
"=	c #CCCDCA",
"-	c #90918C",
";	c #8A8B87",
">	c #8A8B88",
",	c #8B8E89",
"'	c #8D8E8B",
")	c #F7F7F6",
"!	c #EEEEEC",
"~	c #F0F0EE",
"{	c #F4F4F3",
"]	c #8E908C",
"^	c #3364A3",
"/	c #3A67A1",
"(	c #4672AB",
"_	c #4571AA",
":	c #3160A0",
"<	c #8BA9CB",
"[	c #9BB5D4",
"}	c #A0B9D4",
"|	c #A8BED7",
"1	c #AEC3DA",
"2	c #B6C8DE",
"3	c #BCCDE1",
"4	c #BECFE3",
"5	c #B7CBE0",
"6	c #B2C7DF",
"7	c #ACC3DD",
"8	c #A5BEDB",
"9	c #A0BBDA",
"0	c #93B0D2",
"a	c #2F5E9D",
"b	c #769BC6",
"c	c #7FA3CC",
"d	c #7EA2CB",
"e	c #2D5C9A",
"f	c #6F96C3",
"g	c #789DC8",
"h	c #779CC7",
"i	c #2B5997",
"j	c #6890C0",
"k	c #7096C4",
"l	c #6F95C3",
"m	c #6891C0",
"n	c #295693",
"o	c #618BBD",
"p	c #678FBF",
"q	c #275391",
"r	c #5984B8",
"s	c #618ABA",
"t	c #6089BA",
"u	c #25518E",
"v	c #527DB3",
"w	c #5982B6",
"x	c #234E8B",
"y	c #4977AE",
"z	c #517CB1",
"A	c #214B88",
"B	c #27508B",
"C	c #2C548E",
"                ",
"                ",
" .++@@#$        ",
" #%&&&*=-;;;>>, ",
" ')!!!~{)))))%] ",
"^/(__________(/^",
":<[}|1234567890:",
"abcddddddddddcba",
"efghhhhhhhhhhgfe",
"ijkllllllllllkmi",
"nojppppppppppjon",
"qrsttttttttttsrq",
"uvwwwwwwwwwwwwvu",
"xyzzzzzzzzzzzzyx",
"ABCCCCCCCCCCCCBA",
"                "};
