/* XPM */
static char * logout_16x16_xpm[] = {
"16 16 150 2",
"  	c None",
". 	c #000000",
"+ 	c #010101",
"@ 	c #A9A9A9",
"# 	c #888888",
"$ 	c #7D7D7D",
"% 	c #747474",
"& 	c #6C6C6C",
"* 	c #656565",
"= 	c #606060",
"- 	c #5C5C5C",
"; 	c #4C4C4C",
"> 	c #1A1A1A",
", 	c #1B1B1B",
"' 	c #1C1C1C",
") 	c #B4B4B4",
"! 	c #909090",
"~ 	c #868686",
"{ 	c #757575",
"] 	c #6E6E6E",
"^ 	c #696969",
"/ 	c #646464",
"( 	c #4E4E4E",
"_ 	c #1E1E1E",
": 	c #1F1F1F",
"< 	c #202020",
"[ 	c #C0C0C0",
"} 	c #A40000",
"| 	c #986363",
"1 	c #898989",
"2 	c #818181",
"3 	c #797979",
"4 	c #737373",
"5 	c #6D6D6D",
"6 	c #505050",
"7 	c #212121",
"8 	c #222222",
"9 	c #232323",
"0 	c #C1C1C1",
"a 	c #AB1616",
"b 	c #9C4B4B",
"c 	c #8B8B8B",
"d 	c #838383",
"e 	c #7C7C7C",
"f 	c #4F4F4F",
"g 	c #252525",
"h 	c #262626",
"i 	c #272727",
"j 	c #E18080",
"k 	c #B12222",
"l 	c #9E3131",
"m 	c #888383",
"n 	c #808080",
"o 	c #787878",
"p 	c #525252",
"q 	c #282828",
"r 	c #292929",
"s 	c #2A2A2A",
"t 	c #2B2B2B",
"u 	c #E17A7A",
"v 	c #DF7373",
"w 	c #BA3030",
"x 	c #A11C1C",
"y 	c #857777",
"z 	c #7B7B7B",
"A 	c #555555",
"B 	c #2D2D2D",
"C 	c #2E2E2E",
"D 	c #DD7171",
"E 	c #D03838",
"F 	c #D34343",
"G 	c #DC6A6A",
"H 	c #C23D3D",
"I 	c #A30E0E",
"J 	c #846767",
"K 	c #585858",
"L 	c #2F2F2F",
"M 	c #303030",
"N 	c #313131",
"O 	c #323232",
"P 	c #DA6767",
"Q 	c #CE3737",
"R 	c #D04040",
"S 	c #B92929",
"T 	c #5B5B5B",
"U 	c #343434",
"V 	c #353535",
"W 	c #D55D5D",
"X 	c #CB3535",
"Y 	c #CD3B3B",
"Z 	c #D45656",
"` 	c #BF3434",
" .	c #A30C0C",
"..	c #896868",
"+.	c #5D5D5D",
"@.	c #373737",
"#.	c #383838",
"$.	c #393939",
"%.	c #D15252",
"&.	c #D04E4E",
"*.	c #B42323",
"=.	c #A31A1A",
"-.	c #8F7E7E",
";.	c #858585",
">.	c #3A3A3A",
",.	c #3C3C3C",
"'.	c #3D3D3D",
").	c #C94343",
"!.	c #AC1616",
"~.	c #A33232",
"{.	c #969090",
"].	c #8D8D8D",
"^.	c #494949",
"/.	c #3B3B3B",
"(.	c #3F3F3F",
"_.	c #404040",
":.	c #BFBFBE",
"<.	c #A80D0D",
"[.	c #A65353",
"}.	c #A0A09E",
"|.	c #7E7F74",
"1.	c #585A42",
"2.	c #474A2C",
"3.	c #494C2E",
"4.	c #4B4E30",
"5.	c #4D5032",
"6.	c #4F5234",
"7.	c #505335",
"8.	c #C1C1BE",
"9.	c #AA746F",
"0.	c #888C6E",
"a.	c #5F652B",
"b.	c #565D1C",
"c.	c #575E1D",
"d.	c #59601F",
"e.	c #5A6120",
"f.	c #5C6322",
"g.	c #5D6423",
"h.	c #5E6524",
"i.	c #5F6625",
"j.	c #B7B9A7",
"k.	c #8E955C",
"l.	c #697414",
"m.	c #67720F",
"n.	c #687310",
"o.	c #697411",
"p.	c #6A7512",
"q.	c #6B7613",
"r.	c #6C7714",
"s.	c #020202",
"  . . . . . . . . . . . . . . + ",
"  . @ # $ % & * = - ; > , ' ' . ",
"  . ) ! ~ $ { ] ^ / ( _ : : < . ",
"  . [ } | 1 2 3 4 5 6 7 8 9 9 . ",
"  . 0 } a b c d e { f g h h i . ",
"} } } } j k l m n o p q r s t . ",
"} u u u u v w x y z A t B C C . ",
"} D E E E F G H I J K L M N O . ",
"} P Q Q Q Q R P S } T O U V V . ",
"} W X X X Y Z `  ...+.V @.#.$.. ",
"} %.%.%.%.&.*.=.-.;.= #.>.,.'.. ",
"} } } } ).!.~.{.].% ^./.'.(._.. ",
"  . :.} <.[.}.|.1.2.3.4.5.6.7.. ",
"  . 8.} 9.0.a.b.c.d.e.f.g.h.i.. ",
"  . j.k.l.m.n.n.o.o.p.p.q.q.r.. ",
"  + . . . . . . . . . . . . . s."};
