/* XPM */
static char * logout_32x32_xpm[] = {
"32 32 294 2",
"  	c None",
". 	c #000000",
"+ 	c #B4B4B4",
"@ 	c #8C8C8C",
"# 	c #848484",
"$ 	c #7D7D7D",
"% 	c #777777",
"& 	c #717171",
"* 	c #6B6B6B",
"= 	c #666666",
"- 	c #626262",
"; 	c #5E5E5E",
"> 	c #5B5B5B",
", 	c #585858",
"' 	c #565656",
") 	c #181818",
"! 	c #191919",
"~ 	c #B8B8B8",
"{ 	c #8F8F8F",
"] 	c #888888",
"^ 	c #808080",
"/ 	c #7B7B7B",
"( 	c #747474",
"_ 	c #6F6F6F",
": 	c #636363",
"< 	c #5F5F5F",
"[ 	c #5D5D5D",
"} 	c #5A5A5A",
"| 	c #1A1A1A",
"1 	c #1B1B1B",
"2 	c #BDBDBD",
"3 	c #949494",
"4 	c #8B8B8B",
"5 	c #868686",
"6 	c #7F7F7F",
"7 	c #787878",
"8 	c #676767",
"9 	c #646464",
"0 	c #616161",
"a 	c #1C1C1C",
"b 	c #1D1D1D",
"c 	c #C4C4C4",
"d 	c #989898",
"e 	c #919191",
"f 	c #8A8A8A",
"g 	c #797979",
"h 	c #707070",
"i 	c #6C6C6C",
"j 	c #696969",
"k 	c #656565",
"l 	c #1E1E1E",
"m 	c #1F1F1F",
"n 	c #CBCBCB",
"o 	c #9E9E9E",
"p 	c #969696",
"q 	c #909090",
"r 	c #898989",
"s 	c #838383",
"t 	c #7E7E7E",
"u 	c #757575",
"v 	c #202020",
"w 	c #212121",
"x 	c #A50F11",
"y 	c #CCCCCC",
"z 	c #A2A2A2",
"A 	c #9C9C9C",
"B 	c #959595",
"C 	c #6E6E6E",
"D 	c #222222",
"E 	c #232323",
"F 	c #A60F11",
"G 	c #A71314",
"H 	c #330505",
"I 	c #A3A3A3",
"J 	c #999999",
"K 	c #8E8E8E",
"L 	c #7A7A7A",
"M 	c #242424",
"N 	c #DF7676",
"O 	c #A41719",
"P 	c #BF8686",
"Q 	c #A5A5A5",
"R 	c #9F9F9F",
"S 	c #9B9B9B",
"T 	c #8D8D8D",
"U 	c #252525",
"V 	c #262626",
"W 	c #E78A8A",
"X 	c #DF7777",
"Y 	c #AF2426",
"Z 	c #A76162",
"` 	c #A0A0A0",
" .	c #979797",
"..	c #939393",
"+.	c #858585",
"@.	c #7C7C7C",
"#.	c #272727",
"$.	c #282828",
"%.	c #A61012",
"&.	c #A71012",
"*.	c #E48282",
"=.	c #DC5E5E",
"-.	c #B02728",
";.	c #A55152",
">.	c #9D9D9D",
",.	c #818181",
"'.	c #727272",
").	c #292929",
"!.	c #2A2A2A",
"~.	c #E07676",
"{.	c #E27C7C",
"].	c #D33A3A",
"^.	c #D95353",
"/.	c #DE7373",
"(.	c #B32D2E",
"_.	c #A54445",
":.	c #9A9898",
"<.	c #878787",
"[.	c #ADADAD",
"}.	c #2B2B2B",
"|.	c #2C2C2C",
"1.	c #D23E3E",
"2.	c #D13939",
"3.	c #D54B4B",
"4.	c #DC6F6F",
"5.	c #B73233",
"6.	c #A5383A",
"7.	c #979292",
"8.	c #929292",
"9.	c #2D2D2D",
"0.	c #2E2E2E",
"a.	c #CF3838",
"b.	c #D24444",
"c.	c #DA6969",
"d.	c #B93637",
"e.	c #A52E30",
"f.	c #948D8D",
"g.	c #2F2F2F",
"h.	c #303030",
"i.	c #D96868",
"j.	c #CD3636",
"k.	c #CF3D3D",
"l.	c #D86565",
"m.	c #BA3637",
"n.	c #A4282A",
"o.	c #908B8C",
"p.	c #C2C2C2",
"q.	c #313131",
"r.	c #323232",
"s.	c #D76161",
"t.	c #CC3535",
"u.	c #CC3636",
"v.	c #D35151",
"w.	c #CE5152",
"x.	c #AA1C1E",
"y.	c #9B6363",
"z.	c #A6A6A6",
"A.	c #333333",
"B.	c #D45A5A",
"C.	c #CA3434",
"D.	c #CB3737",
"E.	c #D25151",
"F.	c #C74546",
"G.	c #A81A1B",
"H.	c #9E7777",
"I.	c #343434",
"J.	c #353535",
"K.	c #D15454",
"L.	c #D05151",
"M.	c #C83333",
"N.	c #CA3939",
"O.	c #D04F4F",
"P.	c #BD3738",
"Q.	c #A61C1E",
"R.	c #9E8585",
"S.	c #363636",
"T.	c #373737",
"U.	c #A71113",
"V.	c #CD4D4D",
"W.	c #C83A3A",
"X.	c #CD4949",
"Y.	c #B42B2C",
"Z.	c #A52628",
"`.	c #998A8B",
" +	c #9A9A9A",
".+	c #828282",
"++	c #383838",
"@+	c #393939",
"#+	c #CA4545",
"$+	c #C84242",
"%+	c #AE2122",
"&+	c #A03133",
"*+	c #928C8C",
"=+	c #3A3A3A",
"-+	c #3B3B3B",
";+	c #C33838",
">+	c #A31517",
",+	c #A84D4E",
"'+	c #8E8D8D",
")+	c #3C3C3C",
"!+	c #3D3D3D",
"~+	c #A41113",
"{+	c #4C0808",
"]+	c #B3B3B3",
"^+	c #A1A1A1",
"/+	c #3E3E3E",
"(+	c #3F3F3F",
"_+	c #A50E11",
":+	c #670A0A",
"<+	c #A9A9A9",
"[+	c #AAAAAA",
"}+	c #A7A7A7",
"|+	c #858584",
"1+	c #5A5A57",
"2+	c #3B3B36",
"3+	c #3D3D38",
"4+	c #3F3F3A",
"5+	c #41413C",
"6+	c #42423D",
"7+	c #43433E",
"8+	c #44443F",
"9+	c #CECECE",
"0+	c #A8A8A8",
"a+	c #72736A",
"b+	c #484935",
"c+	c #41432D",
"d+	c #42442E",
"e+	c #444630",
"f+	c #464832",
"g+	c #474933",
"h+	c #494B35",
"i+	c #4B4D37",
"j+	c #8A8B80",
"k+	c #595C3C",
"l+	c #464A23",
"m+	c #484C25",
"n+	c #4A4E27",
"o+	c #4B4F28",
"p+	c #4C5029",
"q+	c #4E522B",
"r+	c #50542D",
"s+	c #52562F",
"t+	c #535730",
"u+	c #ABABAB",
"v+	c #A1A299",
"w+	c #70734E",
"x+	c #4E531C",
"y+	c #50551E",
"z+	c #51561F",
"A+	c #525720",
"B+	c #545922",
"C+	c #555A23",
"D+	c #565B24",
"E+	c #575C25",
"F+	c #585D26",
"G+	c #595E27",
"H+	c #5A5F28",
"I+	c #5B6029",
"J+	c #5C612A",
"K+	c #ADAEA9",
"L+	c #888C67",
"M+	c #585F19",
"N+	c #575E16",
"O+	c #585F17",
"P+	c #596018",
"Q+	c #5A6119",
"R+	c #5B621A",
"S+	c #5C631B",
"T+	c #5D641C",
"U+	c #5E651D",
"V+	c #5F661E",
"W+	c #60671F",
"X+	c #616820",
"Y+	c #626921",
"Z+	c #B1B2B0",
"`+	c #9C9F7F",
" @	c #697121",
".@	c #606911",
"+@	c #616A12",
"@@	c #626B13",
"#@	c #636C14",
"$@	c #646D15",
"%@	c #656E16",
"&@	c #666F17",
"*@	c #677018",
"=@	c #687119",
"-@	c #B7B9A4",
";@	c #7D8734",
">@	c #6A750C",
",@	c #6B760D",
"'@	c #6C770E",
")@	c #6D780F",
"!@	c #6E7910",
"~@	c #030303",
"                                                                ",
"                  . . . . . . . . . . . . . . . . . . . . . .   ",
"                  . + @ # $ % & * = - ; > , ' ) ) ) ) ! ! ! .   ",
"                  . ~ { ] ^ / ( _ * = : < [ } ) ! | | 1 1 1 .   ",
"                  . 2 3 4 5 6 7 ( _ * 8 9 0 ; | 1 1 a a b b .   ",
"                  . c d e f # 6 g ( h i j k - a a b l l m m .   ",
"                  . n o p q r s t g u h i j 8 b l m v v v w .   ",
"              x   . y z A B q r s t g u & C j m v w D D D E .   ",
"              F G H y I o J 3 K r s t L u & i w D E E M M M .   ",
"              F N O P Q R S p e T ] # t g u h E M M U V V V .   ",
"              F W X Y Z ` A  ...K r +.^ @.% & M U V #.$.$.$..   ",
"  F %.%.%.%.%.&.*.=.X -.;.>.d 3 { 4 5 ,.@ 6 '.V #.$.).).!.!..   ",
"  F ~.~.~.~.~.~.{.].^./.(._.:.B q @ <.s o [.^ $.).!.}.}.|.|..   ",
"  F N 1.1.1.1.1.1.2.2.3.4.5.6.7.8.T ] # % ` f ).}.|.|.9.0.0..   ",
"  F 4.a.a.a.a.a.a.a.a.a.b.c.d.e.f.K f +.p ~ * }.|.9.0.g.g.h..   ",
"  F i.j.j.j.j.j.j.j.j.j.j.k.l.m.n.o.4 4 p.,.'.9.0.g.h.q.q.r..   ",
"  F s.t.t.t.t.t.t.t.t.t.u.v.w.x.y.e @ z.3 g % 0.h.q.r.A.A.A..   ",
"  F B.C.C.C.C.C.C.C.C.D.E.F.G.H.p 8.T r s ^ % h.q.r.I.I.J.J..   ",
"  F K.L.L.L.L.L.L.M.N.O.P.Q.R.A d ..K f +.,.7 q.A.I.J.S.T.T..   ",
"  F U.U.U.U.U.U.V.W.X.Y.Z.`.d  +J 3 q 4 5 .+g A.I.S.T.++@+@+.   ",
"              F #+$+%+&+*+B  . + +B e @ ] s / I.S.T.@+=+=+-+.   ",
"              F ;+>+,+'+3 J  +R S  .8.T r # / S.T.@+=+-+)+!+.   ",
"              F ~+{+]+ .S z Q ^+A d ..{ f 5 & T.@+=+)+!+/+(+.   ",
"              _+:+. c Q <+[+}+z o J 3 q |+1+2+2+3+4+5+6+7+8+.   ",
"                  . 9+[+[+[+0+I R  +p a+b+c+d+e+f+g+h+i+i+i+.   ",
"                  . 9+[+[+[+<+Q ^+j+k+l+m+n+o+p+q+r+r+s+s+t+.   ",
"                  . 9+[+[+[+u+v+w+x+y+z+A+B+C+D+E+F+G+H+I+J+.   ",
"                  . 9+[+[+K+L+M+N+O+P+Q+R+S+T+U+V+W+W+X+Y+Y+.   ",
"                  . 9+Z+`+ @.@.@+@@@@@#@#@$@%@%@&@*@*@*@=@=@.   ",
"                  . -@;@>@>@,@,@,@,@'@'@'@'@)@)@)@)@)@!@!@!@.   ",
"                  . . . . . . . . . . . . . . . . . . . . . ~@  ",
"                                                                "};
