/* XPM */
static char * settings_32x32_xpm[] = {
"32 32 252 2",
"  	c None",
". 	c #878985",
"+ 	c #888985",
"@ 	c #888A85",
"# 	c #888A86",
"$ 	c #999A97",
"% 	c #C2C3C1",
"& 	c #C1C1C0",
"* 	c #8A8B86",
"= 	c #929490",
"- 	c #CDCDCD",
"; 	c #C9C9C9",
"> 	c #8E908C",
", 	c #989A96",
"' 	c #888984",
") 	c #868882",
"! 	c #A7A8A5",
"~ 	c #D8D8D8",
"{ 	c #D5D5D5",
"] 	c #B6B7B5",
"^ 	c #949691",
"/ 	c #C3C3C2",
"( 	c #CCCCCC",
"_ 	c #CBCBCB",
": 	c #A0A19E",
"< 	c #878984",
"[ 	c #979996",
"} 	c #C4C4C4",
"| 	c #AEAFAD",
"1 	c #898B86",
"2 	c #D1D1D0",
"3 	c #E4E4E4",
"4 	c #BDBEBC",
"5 	c #A0A29E",
"6 	c #C4C5C3",
"7 	c #D6D6D6",
"8 	c #D3D3D3",
"9 	c #D0D0D0",
"0 	c #CFCFCF",
"a 	c #CACACA",
"b 	c #C5C5C5",
"c 	c #BBBCBA",
"d 	c #C8C9C8",
"e 	c #E1E1E1",
"f 	c #DEDEDE",
"g 	c #DADADA",
"h 	c #D7D7D7",
"i 	c #D9D9D9",
"j 	c #DDDDDD",
"k 	c #E2E2E2",
"l 	c #D2D2D2",
"m 	c #C8C8C8",
"n 	c #90928D",
"o 	c #878A85",
"p 	c #878A84",
"q 	c #9E9F9B",
"r 	c #939591",
"s 	c #C1C1C1",
"t 	c #DFDFDF",
"u 	c #DBDBDB",
"v 	c #E8E8E8",
"w 	c #F4F4F4",
"x 	c #E9E9E9",
"y 	c #DDDEDD",
"z 	c #D0D1D0",
"A 	c #CECECE",
"B 	c #E7E7E7",
"C 	c #F2F2F2",
"D 	c #C1C2C1",
"E 	c #B2B3B0",
"F 	c #9FA19E",
"G 	c #E3E3E3",
"H 	c #E0E0E0",
"I 	c #DCDCDC",
"J 	c #E6E6E6",
"K 	c #BABABA",
"L 	c #B3B3B3",
"M 	c #ADADAD",
"N 	c #A6A6A6",
"O 	c #9F9F9F",
"P 	c #A1A1A1",
"Q 	c #CFCFCE",
"R 	c #EFEFEF",
"S 	c #D1D1D1",
"T 	c #BDBDBD",
"U 	c #878983",
"V 	c #9D9E9B",
"W 	c #989898",
"X 	c #949494",
"Y 	c #C7C7C7",
"Z 	c #A7A7A6",
"` 	c #80827F",
" .	c #858781",
"..	c #858882",
"+.	c #969793",
"@.	c #B5B5B5",
"#.	c #C6C6C6",
"$.	c #B9B9B9",
"%.	c #A9A9A9",
"&.	c #A4A4A4",
"*.	c #9A9A9A",
"=.	c #EAEAEA",
"-.	c #CBCBCA",
";.	c #A8A9A6",
">.	c #B0B1AF",
",.	c #BCBCBC",
"'.	c #B8B8B8",
").	c #B6B6B6",
"!.	c #BFBFBF",
"~.	c #A1A1A0",
"{.	c #8B8D89",
"].	c #82837F",
"^.	c #878885",
"/.	c #8A8B8A",
"(.	c #909090",
"_.	c #A0A0A0",
":.	c #B7B7B7",
"<.	c #898A85",
"[.	c #8C8E8A",
"}.	c #B0B0B0",
"|.	c #AAAAAA",
"1.	c #A8A8A8",
"2.	c #ACACAC",
"3.	c #A0A09F",
"4.	c #848681",
"5.	c #666863",
"6.	c #686965",
"7.	c #82847F",
"8.	c #8A8A88",
"9.	c #A7A7A7",
"0.	c #B4B5B3",
"a.	c #8C8E89",
"b.	c #999999",
"c.	c #AEAEAE",
"d.	c #969694",
"e.	c #737671",
"f.	c #767874",
"g.	c #8A8B89",
"h.	c #AAAAA9",
"i.	c #848580",
"j.	c #B4B4B4",
"k.	c #BBBBBB",
"l.	c #8B8B8B",
"m.	c #9E9E9E",
"n.	c #A4A4A3",
"o.	c #6F716E",
"p.	c #71746F",
"q.	c #929291",
"r.	c #8F918C",
"s.	c #8E8F8B",
"t.	c #878787",
"u.	c #808080",
"v.	c #838383",
"w.	c #8D8F8A",
"x.	c #D4D4D4",
"y.	c #92938F",
"z.	c #888888",
"A.	c #7A7A7A",
"B.	c #767676",
"C.	c #A9AAA8",
"D.	c #6A6C67",
"E.	c #6D6F6B",
"F.	c #B9BAB8",
"G.	c #C2C2C2",
"H.	c #AAABA9",
"I.	c #858782",
"J.	c #D9D9D8",
"K.	c #7F7F7F",
"L.	c #868686",
"M.	c #9C9D9C",
"N.	c #A7A8A4",
"O.	c #979896",
"P.	c #838681",
"Q.	c #D3D3D2",
"R.	c #E5E5E5",
"S.	c #C3C3C3",
"T.	c #8A8A8A",
"U.	c #959595",
"V.	c #A1A3A1",
"W.	c #878883",
"X.	c #AAACA9",
"Y.	c #868883",
"Z.	c #828480",
"`.	c #C7C8C6",
" +	c #9C9C9C",
".+	c #939393",
"++	c #929292",
"@+	c #9B9B9B",
"#+	c #9EA09C",
"$+	c #8E8F8A",
"%+	c #A4A6A2",
"&+	c #D0D0CF",
"*+	c #999998",
"=+	c #82837E",
"-+	c #A5A6A4",
";+	c #C0C0C0",
">+	c #BDBEBD",
",+	c #CDCECD",
"'+	c #7E7E7E",
")+	c #A8A8A7",
"!+	c #979895",
"~+	c #72726E",
"{+	c #81827E",
"]+	c #E6E6E5",
"^+	c #A3A3A3",
"/+	c #AFAFAF",
"(+	c #818181",
"_+	c #717171",
":+	c #8F8F8F",
"<+	c #949592",
"[+	c #6C6E6A",
"}+	c #848581",
"|+	c #E4E5E4",
"1+	c #B2B2B2",
"2+	c #8E8E8E",
"3+	c #8E8F8C",
"4+	c #71736F",
"5+	c #C5C6C4",
"6+	c #F6F6F6",
"7+	c #80817F",
"8+	c #797978",
"9+	c #848684",
"0+	c #828580",
"a+	c #969895",
"b+	c #8A8B87",
"c+	c #8E908B",
"d+	c #F5F5F5",
"e+	c #BEBEBE",
"f+	c #626461",
"g+	c #7E807B",
"h+	c #70716C",
"i+	c #878785",
"j+	c #B1B1B1",
"k+	c #8A8C88",
"l+	c #989897",
"m+	c #999A98",
"n+	c #959593",
"o+	c #737470",
"p+	c #7B7C78",
"q+	c #7F807C",
"r+	c #757873",
"s+	c #8D8F8C",
"t+	c #90918E",
"u+	c #898B87",
"v+	c #959794",
"w+	c #4F4F4D",
"x+	c #7B7D79",
"y+	c #8F918E",
"z+	c #949593",
"A+	c #81837E",
"B+	c #6E6F6B",
"C+	c #80817D",
"                                                                ",
"                                                                ",
"                                                                ",
"                      . + +     + @ @ #                         ",
"                      $ % & *   = - ; >     @                   ",
"              * , ' ) ! ~ { ] ^ / ( _ : < [ } | #               ",
"            1 2 3 4 5 6 7 8 9 0 - _ a b c d ; ; .               ",
"            @ - e f g h { i j 3 k g l _ m m ; b < ' n o         ",
"      p q r @ s t u g v w x y z A i B C k ( a ( D m 0 E p       ",
"      F e 3 G H I J C g _ s K L M N O P Q R I _ ( A S T U       ",
"      V m { 7 { G J - ; m s K L M N O W X N J u - 9 Y Z `  .    ",
"    ..+.@.#.#.8 J a ; ; m s $.%.&.&.O W X *.%.=.i l 8 -.% ;.    ",
"  @ ! >.,.'.).t - ; ; !.~.{.< ].].< ^./.(.*._.:.=.l { ~ j 7 <.  ",
"  [.}.|.1.1.2.f ; m 3.4.5.            6.7.8.O 9.=.{ h u _ 0.@   ",
"  a.$.'.O b.c.0 Y d.e.                    f.g.&.i u 7 ~ $.h.i.  ",
"  < j.k.2.l.m.- n.o.                        p.q.u i 7 g g _ r.  ",
"  s.,.9.t.u.v.m w.                            w.J 8 x.{ h a y.  ",
"  a.s (.z.A.B.%.C.D.                        E.F.H S 7 - G.H.w.  ",
"  I.J.i h L K.L.).M.                        N.t 9 A x.G.@.O.<   ",
"  P.Q.G R.S.T.z.U.K V.<                 W.X.u 0 - _ _ l m b.Y.  ",
"  Z.`.J 9  +X .+++@+L k.#+w.p @ @ p $+%+&+x.( ; 9 a 0 A ,.*+=+  ",
"  f.-+_ =.!.} Y T @+m.1.'.;+G.>+& ; ,+A ; b Y _ L '+v.)+!+Z.~+  ",
"    {+@ ]+S.:.:.; ^+&.1.|.|./+).$.K T !.; ( m b - (+_+:+<+[+    ",
"      }+|+K @.b #.2.S.9 _ }.1+'.; ;+T G.0 Y _ A _ (._+2+3+4+    ",
"      =+5+K L '.6+i b ).( !.'.8 Y 8 b b 0 @.:.T ,.7+8+9+0+      ",
"        . a+b+c+d+( @.@._ 8 9 ; @.e+x.7 9 @.@.%.'.a.f+g+        ",
"          h+  i+d+; @.@.:.8 - $.@.@.T - M 3.j+%.:.k+            ",
"              a.#.#.l+@ m+A S.c.n+2.:.( *+o+@ m+w.p+            ",
"                q+1 r+  s+A s t+[+u+j.a v+w+  x+                ",
"                        @ y+z+A+  B+c+@ C+                      ",
"                                                                ",
"                                                                "};
