/* XPM */
static char * settings_16x16_xpm[] = {
"16 16 96 2",
"  	c None",
". 	c #8B8D88",
"+ 	c #8B8C88",
"@ 	c #949692",
"# 	c #8C8D89",
"$ 	c #ABACA9",
"% 	c #8F908C",
"& 	c #898B87",
"* 	c #D7D7D7",
"= 	c #9FA09D",
"- 	c #C9C9C8",
"; 	c #CDCDCC",
"> 	c #8D8E89",
", 	c #8D8F8A",
"' 	c #8D908B",
") 	c #8B8C87",
"! 	c #DADADA",
"~ 	c #DEDEDE",
"{ 	c #DCDCDC",
"] 	c #A8AAA7",
"^ 	c #959692",
"/ 	c #B3B4B1",
"( 	c #90928E",
"_ 	c #8A8C87",
": 	c #B4B5B3",
"< 	c #A8A9A5",
"[ 	c #C1C2C0",
"} 	c #DDDDDD",
"| 	c #CACBCA",
"1 	c #DBDBDB",
"2 	c #C7C8C7",
"3 	c #B0B1AE",
"4 	c #C4C4C3",
"5 	c #959691",
"6 	c #949691",
"7 	c #C2C3C1",
"8 	c #B1B2B0",
"9 	c #898C86",
"0 	c #898B86",
"a 	c #D4D4D4",
"b 	c #D6D6D6",
"c 	c #929590",
"d 	c #92948F",
"e 	c #D3D3D3",
"f 	c #989996",
"g 	c #8A8B87",
"h 	c #989A95",
"i 	c #D2D2D2",
"j 	c #C2C2C1",
"k 	c #8C8E89",
"l 	c #8B8E89",
"m 	c #BFBFBE",
"n 	c #CFCFCF",
"o 	c #B6B7B5",
"p 	c #C8C8C7",
"q 	c #C6C6C5",
"r 	c #CECECE",
"s 	c #9C9E9A",
"t 	c #9DA09B",
"u 	c #C8C8C8",
"v 	c #E1E1E1",
"w 	c #949591",
"x 	c #DFDFDF",
"y 	c #C6C6C6",
"z 	c #DADAD9",
"A 	c #939490",
"B 	c #8C8F8A",
"C 	c #929490",
"D 	c #D9D9D8",
"E 	c #D9D9D9",
"F 	c #C4C4C4",
"G 	c #A0A19E",
"H 	c #8B8E88",
"I 	c #E3E3E3",
"J 	c #F5F5F5",
"K 	c #E1E2E1",
"L 	c #E2E2E2",
"M 	c #B4B4B4",
"N 	c #A3A4A1",
"O 	c #A9AAA7",
"P 	c #888A85",
"Q 	c #8E8F8B",
"R 	c #ABACAA",
"S 	c #979995",
"T 	c #A4A5A3",
"U 	c #C7C7C7",
"V 	c #BCBCBC",
"W 	c #888A86",
"X 	c #8B8D89",
"Y 	c #B4B4B3",
"Z 	c #8D8E8A",
"` 	c #9B9C99",
" .	c #B8B8B7",
"..	c #A4A5A2",
"+.	c #8A8D87",
"@.	c #8A8D88",
"                  .             ",
"        + @ #   # $ %           ",
"        & * = . - ; >   , '     ",
"    )   . ! ~ { ~ ~ ] ^ / (     ",
"  _ : < [ } { | | 1 1 ! 2 #     ",
"  , 3 ! ! 4 5 > > 6 7 * 8 9     ",
"    0 a b c         d e | f g > ",
"  , h i j k         l m n n o _ ",
"_ : n i p k         k q r s k   ",
"l + t u v w         w x y 0     ",
"    g $ 1 z A B B C D E F G .   ",
"    H : y I J K K J L M N O P   ",
"    Q R S T u b b U V _ W B     ",
"    X H   + Y R Z `  .0         ",
"          # ..+.  @.C &         ",
"            g                   "};
