/* XPM */
static char * windows_16x16_xpm[] = {
"16 16 13 1",
" 	c None",
".	c #555753",
"+	c #9FA09E",
"@	c #A8A9A7",
"#	c #81837E",
"$	c #878984",
"%	c #888A85",
"&	c #FFFFFF",
"*	c #E5E5E3",
"=	c #636461",
"-	c #E3E4E0",
";	c #DFE0DD",
">	c #868783",
"    ............",
"    .+@@@@@@@@+.",
"    .@########@.",
"    .@$$$$$$$$@.",
"    %&********&%",
"...........=**&%",
".+@@@@@@@@+.--&%",
".@########@.--&%",
".@$$$$$$$$@.;;&%",
"%&********&%&&&%",
"%&********&%%%%%",
"%&--------&%    ",
"%&--------&%    ",
"%&;;;;;;;;&%    ",
"%&&&&&&&&&&%    ",
"%%%%%%>%%%%%    "};
