/* XPM */
static char * windows_32x32_xpm[] = {
"32 32 39 1",
" 	c None",
".	c #555753",
"+	c #565854",
"@	c #9FA09E",
"#	c #A8A9A7",
"$	c #B0B1AE",
"%	c #81837E",
"&	c #B4B5B2",
"*	c #878984",
"=	c #888A85",
"-	c #F7F7F6",
";	c #EDEDEB",
">	c #FBFBFB",
",	c #ECECEA",
"'	c #FBFBFA",
")	c #EAEAE8",
"!	c #5A5C58",
"~	c #A6A8A5",
"{	c #E8E8E5",
"]	c #FAFAFA",
"^	c #595B57",
"/	c #E5E7E3",
"(	c #FAFAF9",
"_	c #E3E5E0",
":	c #F9FAF9",
"<	c #E1E3DE",
"[	c #F9F9F8",
"}	c #DFE1DB",
"|	c #DCDFD9",
"1	c #F8F9F7",
"2	c #DADDD7",
"3	c #F8F8F7",
"4	c #D8DBD4",
"5	c #F7F8F6",
"6	c #EFF0EE",
"7	c #898B85",
"8	c #898B86",
"9	c #70716C",
"0	c #7B7D77",
"                                ",
"            ..................  ",
"           +@################@+ ",
"           .$%%%%%%%%%%%%%%%%$. ",
"           .&****************&. ",
"           =-;;;;;;;;;;;;;;;;-= ",
"           =>;;;;;;;;;;;;;;;;>= ",
"           =>;;;;;;;;;;;;;;;;>= ",
"           =>;;;;;;;;;;;;;;;;>= ",
"           =>,,,,,,,,,,,,,,,,>= ",
"           ='))))))))))))))))'= ",
"  .................!~{{{{{{{{]= ",
" +@################@^////////(= ",
" .$%%%%%%%%%%%%%%%%$.________:= ",
" .&****************&.<<<<<<<<[= ",
" =-;;;;;;;;;;;;;;;;-=}}}}}}}}[= ",
" =>;;;;;;;;;;;;;;;;>=||||||||1= ",
" =>;;;;;;;;;;;;;;;;>=222222223= ",
" =>;;;;;;;;;;;;;;;;>=444444445= ",
" =>,,,,,,,,,,,,,,,,>=--------67 ",
" ='))))))))))))))))'=========89 ",
" =]{{{{{{{{{{{{{{{{]=           ",
" =(////////////////(=           ",
" =:________________:=           ",
" =[<<<<<<<<<<<<<<<<[=           ",
" =[}}}}}}}}}}}}}}}}[=           ",
" =1||||||||||||||||1=           ",
" =322222222222222223=           ",
" =544444444444444445=           ",
" 86----------------67           ",
" 08================89           ",
"                                "};
