/* XPM */
static char * buttonI_xpm[] = {
"190 26 126 2",
"  	c #EDECEB",
". 	c #EEEEEC",
"+ 	c #ECEBEA",
"@ 	c #EBEAE9",
"# 	c #F2F1F0",
"$ 	c #C1C0BF",
"% 	c #918E8C",
"& 	c #C3C2C1",
"* 	c #F0EEED",
"= 	c #AFADAC",
"- 	c #FFFFFF",
"; 	c #FFFEFE",
"> 	c #FFFFFE",
", 	c #FEFFFF",
"' 	c #FEFFFE",
") 	c #FFFEFF",
"! 	c #AFADAB",
"~ 	c #C4C2C1",
"{ 	c #FEFEFD",
"] 	c #FEFEFE",
"^ 	c #FDFEFD",
"/ 	c #FDFEFE",
"( 	c #FEFDFE",
"_ 	c #FDFDFD",
": 	c #FEFDFD",
"< 	c #FDFDFE",
"[ 	c #FEFEFF",
"} 	c #FCFDFD",
"| 	c #FDFCFD",
"1 	c #FDFDFC",
"2 	c #FCFCFD",
"3 	c #FDFCFC",
"4 	c #FCFDFC",
"5 	c #FCFCFC",
"6 	c #FCFCFB",
"7 	c #FCFBFC",
"8 	c #FBFCFC",
"9 	c #FBFCFB",
"0 	c #FCFBFB",
"a 	c #FBFBFC",
"b 	c #FBFBFB",
"c 	c #FAFAF9",
"d 	c #F5F4F3",
"e 	c #F4F4F3",
"f 	c #F5F4F2",
"g 	c #F5F3F3",
"h 	c #FAF9F9",
"i 	c #F4F3F2",
"j 	c #F4F3F1",
"k 	c #F3F3F2",
"l 	c #F4F2F1",
"m 	c #F4F2F2",
"n 	c #F3F2F2",
"o 	c #F3F2F1",
"p 	c #F9F9F8",
"q 	c #F3F1F1",
"r 	c #F2F1F1",
"s 	c #F2F2F0",
"t 	c #F3F2F0",
"u 	c #F3F1F0",
"v 	c #F2F2F1",
"w 	c #F8F8F7",
"x 	c #F1F0EF",
"y 	c #F2F0EF",
"z 	c #F1F0F0",
"A 	c #F1F1EF",
"B 	c #F1F1F0",
"C 	c #F2F1EF",
"D 	c #F2F0F0",
"E 	c #F8F7F7",
"F 	c #F0EFEE",
"G 	c #F0EFED",
"H 	c #F0EEEE",
"I 	c #EFEEEE",
"J 	c #EFEFEE",
"K 	c #F7F6F6",
"L 	c #EFEDED",
"M 	c #EFEEEC",
"N 	c #EFEEED",
"O 	c #EEEDEC",
"P 	c #EEEDED",
"Q 	c #EFEDEC",
"R 	c #EEEEED",
"S 	c #EEEDEB",
"T 	c #EDEDEB",
"U 	c #EDEDEC",
"V 	c #EDECEC",
"W 	c #EEECEB",
"X 	c #EEECEC",
"Y 	c #F6F5F5",
"Z 	c #EDEBEA",
"` 	c #ECEBEB",
" .	c #ECECEA",
"..	c #F5F5F4",
"+.	c #EBEAE8",
"@.	c #EBE9E9",
"#.	c #EAE9E8",
"$.	c #EAEAE9",
"%.	c #EAEAE8",
"&.	c #EBE9E8",
"*.	c #F5F4F4",
"=.	c #E9E9E7",
"-.	c #E9E9E8",
";.	c #EAE8E7",
">.	c #EAE9E7",
",.	c #EAE8E8",
"'.	c #E9E8E8",
").	c #E9E8E7",
"!.	c #999795",
"~.	c #BAB8B6",
"{.	c #A9A7A6",
"].	c #E8E7E6",
"^.	c #E9E8E6",
"/.	c #E8E7E7",
"(.	c #E9E7E6",
"_.	c #E9E7E7",
":.	c #E8E8E6",
"<.	c #E8E8E7",
"[.	c #AAA8A5",
"}.	c #BCB9B8",
"|.	c #ECEBE9",
"1.	c #BDBAB9",
"2.	c #BDBBB9",
"3.	c #E7E5E5",
"4.	c #E3E2E1",
"5.	c #E2E0DF",
"  . + @ @ @ @ @ @ @ @ @ @ @ @ @ @ @ @ @ @ @ @ @ @ @ @ @ @ @ @ @ @ @ @ @ @ @ @ @ @ @ @ @ @ @ @ @ @ @ @ @ @ @ @ @ @ @ @ @ @ @ @ @ @ @ @ @ @ @ @ @ @ @ @ @ @ @ @ @ @ @ @ @ @ @ @ @ @ @ @ @ @ @ @ @ @ @ @ @ @ @ @ @ @ @ @ @ @ @ @ @ @ @ @ @ @ @ @ @ @ @ @ @ @ @ @ @ @ @ @ @ @ @ @ @ @ @ @ @ @ @ @ @ @ @ @ @ @ @ @ @ @ @ @ @ @ @ @ @ @ @ @ @ @ @ @ @ @ @ @ @ @ @ @ @ @ @ @ @ @ @ @ @ @ + . # #   ",
"  #   $ % % % % % % % % % % % % % % % % % % % % % % % % % % % % % % % % % % % % % % % % % % % % % % % % % % % % % % % % % % % % % % % % % % % % % % % % % % % % % % % % % % % % % % % % % % % % % % % % % % % % % % % % % % % % % % % % % % % % % % % % % % % % % % % % % % % % % % % % % % % % % % % % % % % % % % % % % % % % % % % % % % % % % % % % % % % % % % % % % % % % % % &   #   ",
"  * $ = - - - - - - - ; > - - - - - - > - - - - > - - - - - - > - - - - - - - , > - - > > - - - ' - - - - - - - - ) - - - - - - - , > - - > > - - - ' - - - - - - - - ) - - - - - , > - - > > - - - ' - - - - - - - - ) - - > - - - - - - > - - - - - - - , > - - > > - - - ' - - - - - > - - - - - - > - - - - - - - , > - - > > - - - ' - - - - - - - - ) , > - - ) - - - - , ) - ! ~ *   ",
"  + % > { { ] ^ { / { ] / ] ( { ^ _ : _ ] { : ( / ] ( { ^ _ : _ ] { : ( / { { ( _ / ( { : < ( _ < ] ^ < < < { { { { ] { : ( / { { ( _ / ( { : < ( _ < ] ^ < < < { { { { : ( / { { ( _ / ( { : < ( _ < ] ^ < < < { { { { ^ ^ / ] ( { ^ _ : _ ] { : ( / { { ( _ / ( { : < ( _ < ] ^ < < < / ] ( { ^ _ : _ ] { : ( / { { ( _ / ( { : < ( _ < ] ^ < < < { { { { : { ( < < / : ] : ^ ^ / { % +   ",
"  @ % [ { _ : / ^ { / _ ^ { : { _ _ _ ^ _ < _ _ ^ { : { _ _ _ ^ _ < _ _ _ _ _ : _ / ^ _ ( < _ _ / _ / _ _ / ^ < < ( _ < _ _ _ _ _ : _ / ^ _ ( < _ _ / _ / _ _ / ^ < < ( _ _ _ _ _ : _ / ^ _ ( < _ _ / _ / _ _ / ^ < < ( _ : ^ { : { _ _ _ ^ _ < _ _ _ _ _ : _ / ^ _ ( < _ _ / _ / _ _ / ^ { : { _ _ _ ^ _ < _ _ _ _ _ : _ / ^ _ ( < _ _ / _ / _ _ / ^ < < ( _ _ ] : ^ ^ ^ _ _ _ _ / ^ % @   ",
"  @ % ] _ _ _ _ _ _ _ _ _ _ _ _ _ _ _ _ _ _ _ _ _ _ _ _ _ _ _ _ _ _ _ _ _ _ ^ _ : _ _ _ _ _ _ _ _ _ _ _ _ _ < _ _ _ _ _ _ _ _ _ ^ _ : _ _ _ _ _ _ _ _ _ _ _ _ _ < _ _ _ _ _ _ _ ^ _ : _ _ _ _ _ _ _ _ _ _ _ _ _ < _ _ _ _ _ _ _ _ _ _ _ _ _ _ _ _ _ _ _ ^ _ : _ _ _ _ _ _ _ _ _ _ _ _ _ _ _ _ _ _ _ _ _ _ _ _ _ _ _ ^ _ : _ _ _ _ _ _ _ _ _ _ _ _ _ < _ _ _ _ _ _ _ _ _ _ _ _ _ _ _ _ % @   ",
"  @ % ] } _ | | _ | _ _ _ _ _ _ 1 } } _ _ _ 2 _ _ _ _ _ 1 } } _ _ _ 2 _ _ } 1 _ _ 3 _ 1 _ 1 _ _ } _ 2 _ _ | 1 _ | 1 _ _ 2 _ _ } 1 _ _ 3 _ 1 _ 1 _ _ } _ 2 _ _ | 1 _ | 1 2 _ _ } 1 _ _ 3 _ 1 _ 1 _ _ } _ 2 _ _ | 1 _ | 1 _ _ _ _ _ _ 1 } } _ _ _ 2 _ _ } 1 _ _ 3 _ 1 _ 1 _ _ } _ 2 _ _ | _ _ _ _ 1 } } _ _ _ 2 _ _ } 1 _ _ 3 _ 1 _ 1 _ _ } _ 2 _ _ | 1 _ | 1 } | | _ _ 4 | 1 | 1 4 | } % @   ",
"  @ % ] 2 1 4 3 1 _ 5 5 | | 4 3 _ 2 5 5 4 2 1 3 | | 4 3 _ 2 5 5 4 2 1 3 | _ | 1 4 | 4 | 1 5 _ 2 5 1 3 | | 5 } } 1 } 4 2 1 3 | _ | 1 4 | 4 | 1 5 _ 2 5 1 3 | | 5 } } 1 } 1 3 | _ | 1 4 | 4 | 1 5 _ 2 5 1 3 | | 5 } } 1 } 3 4 | | 4 3 _ 2 5 5 4 2 1 3 | _ | 1 4 | 4 | 1 5 _ 2 5 1 3 | | 5 | | 4 3 _ 2 5 5 4 2 1 3 | _ | 1 4 | 4 | 1 5 _ 2 5 1 3 | | 5 } } 1 } 1 | 5 5 _ 5 2 5 4 } 4 5 3 % @   ",
"  @ % ] 4 5 4 5 4 2 3 2 5 3 5 5 5 5 5 3 3 5 3 5 5 3 5 5 5 5 5 3 3 5 3 5 5 2 5 3 3 5 2 4 2 5 5 1 5 2 4 3 5 5 5 5 1 5 3 5 3 5 5 2 5 3 3 5 2 4 2 5 5 1 5 2 4 3 5 5 5 5 1 5 3 5 5 2 5 3 3 5 2 4 2 5 5 1 5 2 4 3 5 5 5 5 1 5 5 | 5 3 5 5 5 5 5 3 3 5 3 5 5 2 5 3 3 5 2 4 2 5 5 1 5 2 4 3 5 5 5 3 5 5 5 5 5 3 3 5 3 5 5 2 5 3 3 5 2 4 2 5 5 1 5 2 4 3 5 5 5 5 1 5 3 1 5 } 2 5 5 5 } 4 5 3 5 % @   ",
"  @ % ] 5 6 5 5 5 5 5 7 8 5 5 5 5 9 8 7 5 5 5 6 8 5 5 5 5 9 8 7 5 5 5 6 5 5 7 5 7 5 5 6 9 5 6 5 5 7 5 8 5 5 5 5 5 8 5 5 5 6 5 5 7 5 7 5 5 6 9 5 6 5 5 7 5 8 5 5 5 5 5 8 5 6 5 5 7 5 7 5 5 6 9 5 6 5 5 7 5 8 5 5 5 5 5 8 5 5 8 5 5 5 5 9 8 7 5 5 5 6 5 5 7 5 7 5 5 6 9 5 6 5 5 7 5 8 5 5 8 5 5 5 5 9 8 7 5 5 5 6 5 5 7 5 7 5 5 6 9 5 6 5 5 7 5 8 5 5 5 5 5 8 5 5 5 5 5 6 5 7 5 7 5 5 5 % @   ",
"  @ % _ 0 7 5 a 0 7 8 5 0 5 5 6 8 b a 7 6 7 8 5 0 5 5 6 8 b a 7 6 7 8 5 6 6 7 5 5 5 5 8 7 0 6 7 7 5 b 5 5 6 5 8 8 0 6 7 8 5 6 6 7 5 5 5 5 8 7 0 6 7 7 5 b 5 5 6 5 8 8 0 8 5 6 6 7 5 5 5 5 8 7 0 6 7 7 5 b 5 5 6 5 8 8 0 9 8 0 5 5 6 8 b a 7 6 7 8 5 6 6 7 5 5 5 5 8 7 0 6 7 7 5 b 5 5 6 0 5 5 6 8 b a 7 6 7 8 5 6 6 7 5 5 5 5 8 7 0 6 7 7 5 b 5 5 6 5 8 8 0 8 7 0 5 8 7 7 6 7 a a 7 6 % @   ",
"  @ % ^ a b 8 5 6 8 9 a 6 b 7 b a 9 6 0 8 9 b 7 6 b 7 b a 9 6 0 8 9 b 7 b a a b 9 8 a 9 8 b 7 0 b 6 b 0 b b 8 b 0 a 8 9 b 7 b a a b 9 8 a 9 8 b 7 0 b 6 b 0 b b 8 b 0 a b 7 b a a b 9 8 a 9 8 b 7 0 b 6 b 0 b b 8 b 0 a 9 9 6 b 7 b a 9 6 0 8 9 b 7 b a a b 9 8 a 9 8 b 7 0 b 6 b 0 b b 6 b 7 b a 9 6 0 8 9 b 7 b a a b 9 8 a 9 8 b 7 0 b 6 b 0 b b 8 b 0 a 6 b 8 8 b b 7 6 a b 0 b b % @   ",
"  @ % _ b b 9 b b b a b b b b b b b a b b b b b b b b b b b a b b b b b b b b b b b b 9 b b 0 b b b a b b b b b b a b b b b b b b b b b b 9 b b 0 b b b a b b b b b b a b b b b b b b b b 9 b b 0 b b b a b b b b b b a b b b b b b b b a b b b b b b b b b b b b 9 b b 0 b b b a b b b b b b b b b a b b b b b b b b b b b b 9 b b 0 b b b a b b b b b b a b b b b b b b b b b b b b % @   ",
"  @ % c d d d d d d d d d d e d d d d d d d d d d d e d d d d d d d d d d d d d f d d d d d d d d d d d d d d d d d d d d d d d d d f d d d d d d d d d d d d d d d d d d d d d d d f d d d d d d d d d d d d d d d d d d d d d e d d d d d d d d d d d d d f d d d d d d d d d d d d d d d e d d d d d d d d d d d d d f d d d d d d d d d d d d d d d d d d d d d d d d d d e d d g % @   ",
"  @ % h i i j j k j j i i j j i l j m m i m m i i j j i l j m m i m m i n m j i i i i k m m i m m j i l k m i i i m i m m i n m j i i i i k m m i m m j i l k m i i i m m i n m j i i i i k m m i m m j i l k m i i i m i i i j j i l j m m i m m i n m j i i i i k m m i m m j i l k m i j j i l j m m i m m i n m j i i i i k m m i m m j i l k m i i i m o l i n i k m k o j k i j % @   ",
"  @ % p q # r r s r s s t t t u s v v t # # q o t t t u s v v t # # q o v o # # u s t o u v r r q r r r o q v v # s # # q o v o # # u s t o u v r r q r r r o q v v # s q o v o # # u s t o u v r r q r r r o q v v # s o o t t t u s v v t # # q o v o # # u s t o u v r r q r r r o q t t t u s v v t # # q o v o # # u s t o u v r r q r r r o q v v # s u # q # v r r t # s # # r % @   ",
"  @ % w x y z x x y x x z x y A A x x x x y z A z x y A A x x x x y z A B x C C x D x D y x x x x x z x x x x x A A x y z A B x C C x D x D y x x x x x z x x x x x A A z A B x C C x D x D y x x x x x z x x x x x A A x x z x y A A x x x x y z A B x C C x D x D y x x x x x z x x x z x y A A x x x x y z A B x C C x D x D y x x x x x z x x x x x A A x A A x x z y x C C x x z % @   ",
"  @ % E F G F H F G F F F F G G F F F F G I F F F F G G F F F F G I F F F F F F F F H F F F I F H G F F F F F F J F G I F F F F F F F F H F F F I F H G F F F F F F J F F F F F F F F F H F F F I F H G F F F F F F J F F F F F G G F F F F G I F F F F F F F F H F F F I F H G F F F F F F G G F F F F G I F F F F F F F F H F F F I F H G F F F F F F J F F F F H J F F F J F J F F % @   ",
"  @ % K L M N . N O M L N O L . P L N N N L M M N O L . P L N N N L M M . N M L P M N M M P M N P . M N Q N L L L Q N L M M . N M L P M N M M P M N P . M N Q N L L L Q M M . N M L P M N M M P M N P . M N Q N L L L Q N P N O L . P L N N N L M M . N M L P M N M M P M N P . M N Q N N O L . P L N N N L M M . N M L P M N M M P M N P . M N Q N L L L Q Q N . N N L L M N R M M L % @   ",
"  @ % K S S   T T U   V S S T V   T   W W X T T S S T V   T   W W X T T T T V U     V     W W T   V   X T   T T T   W X T T T T V U     V     W W T   V   X T   T T T   T T T T V U     V     W W T   V   X T   T T T   X V S S T V   T   W W X T T T T V U     V     W W T   V   X T   S S T V   T   W W X T T T T V U     V     W W T   V   X T   T T T     W   T V O     T T W O   % @   ",
"  @ % Y + Z ` + +  .+ + + + + + Z + + + + + + + + + + + Z + + + + + + + + + + ` Z  . .+ + + + + + + + + + ` + + + + + + + + + + + ` Z  . .+ + + + + + + + + + ` + + + + + + + + + ` Z  . .+ + + + + + + + + + ` + + + + ` + + + + + Z + + + + + + + + + + ` Z  . .+ + + + + + + + + + ` + + + + Z + + + + + + + + + + ` Z  . .+ + + + + + + + + + ` + + + +  .+ ` + + + Z + Z + + + Z % @   ",
"  @ % ..@ +.@ @ @ @.@.@ @ #.@.+.@ @ +.@ @ @ +.$.@ #.@.+.@ @ +.@ @ @ +.$.@ +.@ @ @ +.@ @ %.@ +.&.+.+.@ @ @ @ @ $.@ @ @ @ +.$.@ +.@ @ @ +.@ @ %.@ +.&.+.+.@ @ @ @ @ $.@ @ +.$.@ +.@ @ @ +.@ @ %.@ +.&.+.+.@ @ @ @ @ $.@ @ $.@ @ #.@.+.@ @ +.@ @ @ +.$.@ +.@ @ @ +.@ @ %.@ +.&.+.+.@ @ @ @ @ #.@.+.@ @ +.@ @ @ +.$.@ +.@ @ @ +.@ @ %.@ +.&.+.+.@ @ @ @ @ $.@ @ @ @ @ @ @ @ $.&.@ @ @ @ @ % @   ",
"  + % *.=.-.-.#.;.;.-.;.;.;.=.-.=.;.#.=.=.;.>.-.;.;.=.-.=.;.#.=.=.;.>.-.#.#.>.,.;.;.-.'.,.>.>.,.,.'.-.#.,.-.=.'.).,.=.;.>.-.#.#.>.,.;.;.-.'.,.>.>.,.,.'.-.#.,.-.=.'.).,.>.-.#.#.>.,.;.;.-.'.,.>.>.,.,.'.-.#.,.-.=.'.).,.;.-.;.;.=.-.=.;.#.=.=.;.>.-.#.#.>.,.;.;.-.'.,.>.>.,.,.'.-.#.,.-.;.;.=.-.=.;.#.=.=.;.>.-.#.#.>.,.;.;.-.'.,.>.>.,.,.'.-.#.,.-.=.'.).,.=.;.>.'.,.#.=.'.,.#.#.#.;.!.+   ",
"  N ~.{.].^.].^./.].(._.(.]./.:.(././.].].^.<.^.(.]./.:.(././.].].^.<.^.].(././.<.].:./.^.].<.].:.]._.:.)./._.<.].].].^.<.^.].(././.<.].:./.^.].<.].:.]._.:.)./._.<.].].<.^.].(././.<.].:./.^.].<.].:.]._.:.)./._.<.].].^.].(.]./.:.(././.].].^.<.^.].(././.<.].:./.^.].<.].:.]._.:.)./.(.]./.:.(././.].].^.<.^.].(././.<.].:./.^.].<.].:.]._.:.)./._.<.].].].].^.<.:./.].:.].]./.(.[.}.N   ",
"  C |.1.% % % % % % % % % % % % % % % % % % % % % % % % % % % % % % % % % % % % % % % % % % % % % % % % % % % % % % % % % % % % % % % % % % % % % % % % % % % % % % % % % % % % % % % % % % % % % % % % % % % % % % % % % % % % % % % % % % % % % % % % % % % % % % % % % % % % % % % % % % % % % % % % % % % % % % % % % % % % % % % % % % % % % % % % % % % % % % % % % % % % % % 2.|.C   ",
"  M 3.4.5.5.5.5.5.5.5.5.5.5.5.5.5.5.5.5.5.5.5.5.5.5.5.5.5.5.5.5.5.5.5.5.5.5.5.5.5.5.5.5.5.5.5.5.5.5.5.5.5.5.5.5.5.5.5.5.5.5.5.5.5.5.5.5.5.5.5.5.5.5.5.5.5.5.5.5.5.5.5.5.5.5.5.5.5.5.5.5.5.5.5.5.5.5.5.5.5.5.5.5.5.5.5.5.5.5.5.5.5.5.5.5.5.5.5.5.5.5.5.5.5.5.5.5.5.5.5.5.5.5.5.5.5.5.5.5.5.5.5.5.5.5.5.5.5.5.5.5.5.5.5.5.5.5.5.5.5.5.5.5.5.5.5.5.5.5.5.5.5.5.5.5.5.5.5.5.5.5.5.5.4.3.M # #   "};
