/* XPM */
static char * close_xpm[] = {
"24 44 23 1",
" 	c #EBEAE9",
".	c #EAE9E8",
"+	c #E9E8E7",
"@	c #E8E7E6",
"#	c #E7E6E5",
"$	c #E6E5E4",
"%	c #E5E4E3",
"&	c #6B6A6A",
"*	c #E4E3E2",
"=	c #E3E2E1",
"-	c #E2E1E0",
";	c #DEDCDA",
">	c #DDDBD9",
",	c #DCDAD8",
"'	c #DBD9D7",
")	c #DAD8D6",
"!	c #D9D7D5",
"~	c #D8D6D4",
"{	c #D7D5D3",
"]	c #D6D4D2",
"^	c #D5D3D1",
"/	c #D4D2D0",
"(	c #9D9996",
"                        ",
"........................",
"++++++++++++++++++++++++",
"@@@@@@@@@@@@@@@@@@@@@@@@",
"########################",
"$$$$$$$$$$$$$$$$$$$$$$$$",
"%%%%%%%%&&&%%%&&&%%%%%%%",
"*********&&&*&&&********",
"==========&&&&&=========",
"-----------&&&----------",
";;;;;;;;;;&&&&&;;;;;;;;;",
">>>>>>>>>&&&>&&&>>>>>>>>",
",,,,,,,,&&&,,,&&&,,,,,,,",
"''''''''''''''''''''''''",
"))))))))))))))))))))))))",
"!!!!!!!!!!!!!!!!!!!!!!!!",
"~~~~~~~~~~~~~~~~~~~~~~~~",
"{{{{{{{{{{{{{{{{{{{{{{{{",
"]]]]]]]]]]]]]]]]]]]]]]]]",
"^^^^^^^^^^^^^^^^^^^^^^^^",
"////////////////////////",
"((((((((((((((((((((((((",
"                        ",
"........................",
"++++++++++++++++++++++++",
"@@@@@@@@@@@@@@@@@@@@@@@@",
"########################",
"$$$$$$$$$$$$$$$$$$$$$$$$",
"%%%%%%%%&&&%%%&&&%%%%%%%",
"*********&&&*&&&********",
"==========&&&&&=========",
"-----------&&&----------",
";;;;;;;;;;&&&&&;;;;;;;;;",
">>>>>>>>>&&&>&&&>>>>>>>>",
",,,,,,,,&&&,,,&&&,,,,,,,",
"''''''''''''''''''''''''",
"))))))))))))))))))))))))",
"!!!!!!!!!!!!!!!!!!!!!!!!",
"~~~~~~~~~~~~~~~~~~~~~~~~",
"{{{{{{{{{{{{{{{{{{{{{{{{",
"]]]]]]]]]]]]]]]]]]]]]]]]",
"^^^^^^^^^^^^^^^^^^^^^^^^",
"////////////////////////",
"(((((((((((((((((((((((("};
