/* XPM */
static char * titleIQ_xpm[] = {
"1 22 21 1",
" 	c #85827E",
".	c #D2D0CE",
"+	c #E8E7E6",
"@	c #E7E6E5",
"#	c #E6E5E4",
"$	c #E5E4E3",
"%	c #E4E3E2",
"&	c #E3E2E1",
"*	c #E2E1E0",
"=	c #DEDCDA",
"-	c #DDDBD9",
";	c #DCDAD8",
">	c #DBD9D7",
",	c #DAD8D6",
"'	c #D9D7D5",
")	c #D8D6D4",
"!	c #D7D5D3",
"~	c #D6D4D2",
"{	c #D5D3D1",
"]	c #D4D2D0",
"^	c #9D9996",
" ",
".",
".",
"+",
"@",
"#",
"$",
"%",
"&",
"*",
"=",
"-",
";",
">",
",",
"'",
")",
"!",
"~",
"{",
"]",
"^"};
