/* XPM */
static char * desktop_xpm[] = {
"22 22 116 2",
"  	c None",
". 	c #90928D",
"+ 	c #898B86",
"@ 	c #91928E",
"# 	c #8A8C87",
"$ 	c #EDEDEB",
"% 	c #ECEDEA",
"& 	c #ECECE9",
"* 	c #EBEBE8",
"= 	c #EAEBE8",
"- 	c #E9EAE7",
"; 	c #E8E9E6",
"> 	c #E7E8E5",
", 	c #E7E8E4",
"' 	c #E6E7E3",
") 	c #E5E6E2",
"! 	c #E4E6E1",
"~ 	c #E3E5E1",
"{ 	c #E1E3DF",
"] 	c #ECECEA",
"^ 	c #204A87",
"/ 	c #E0E2DD",
"( 	c #3F6397",
"_ 	c #3D6197",
": 	c #476A9D",
"< 	c #5E7DA9",
"[ 	c #426599",
"} 	c #355B92",
"| 	c #4F71A0",
"1 	c #7690B5",
"2 	c #738DB3",
"3 	c #6E8AB1",
"4 	c #DFE1DC",
"5 	c #40659A",
"6 	c #EEEEEE",
"7 	c #CFD7E0",
"8 	c #6584AF",
"9 	c #41679C",
"0 	c #3D6499",
"a 	c #6987B1",
"b 	c #6F8BB3",
"c 	c #6B88B1",
"d 	c #6684AE",
"e 	c #DDE0DA",
"f 	c #E8E9E5",
"g 	c #466CA0",
"h 	c #E2E2E2",
"i 	c #E5E5E5",
"j 	c #5F81AE",
"k 	c #466CA2",
"l 	c #5377A8",
"m 	c #6B8BB4",
"n 	c #6888B3",
"o 	c #6685B1",
"p 	c #6182AE",
"q 	c #DCDED9",
"r 	c #E6E7E4",
"s 	c #4C73A7",
"t 	c #4E75A9",
"u 	c #6385B4",
"v 	c #597FAF",
"w 	c #4E76AA",
"x 	c #6387B4",
"y 	c #6789B5",
"z 	c #6487B5",
"A 	c #6084B2",
"B 	c #5D80AE",
"C 	c #DBDDD7",
"D 	c #537BAD",
"E 	c #D4DBE4",
"F 	c #5880B3",
"G 	c #5A82B3",
"H 	c #668BB9",
"I 	c #6389B8",
"J 	c #6186B6",
"K 	c #5D83B3",
"L 	c #587FAF",
"M 	c #D9DCD6",
"N 	c #E4E5E1",
"O 	c #E1E1E1",
"P 	c #5E87B9",
"Q 	c #648CBC",
"R 	c #648DBD",
"S 	c #628ABC",
"T 	c #5E87B8",
"U 	c #5882B5",
"V 	c #537CB1",
"W 	c #D9DCD5",
"X 	c #E1E3DE",
"Y 	c #5D85B7",
"Z 	c #6089BB",
"` 	c #638DBE",
" .	c #6690C1",
"..	c #6691C3",
"+.	c #6590C2",
"@.	c #628DC0",
"#.	c #5C88BB",
"$.	c #5783B7",
"%.	c #527DB2",
"&.	c #D7DBD4",
"*.	c #D6DAD2",
"=.	c #DEE1DB",
"-.	c #DFE1DB",
";.	c #DEE0DB",
">.	c #DDDFDA",
",.	c #DCDFD9",
"'.	c #DBDED8",
").	c #DADDD7",
"!.	c #DADDD6",
"~.	c #D8DBD4",
"{.	c #D7DBD3",
"].	c #D6DAD3",
"^.	c #D6D9D2",
"/.	c #D5D8D1",
"(.	c #8F928C",
"_.	c #8E908A",
"                                            ",
"                                            ",
"                                            ",
"                                            ",
"      . + + + + + + + + + + + + + + @       ",
"      # $ % & * = - ; > , ' ) ! ~ { #       ",
"      # ] ^ ^ ^ ^ ^ ^ ^ ^ ^ ^ ^ ^ / #       ",
"      # = ^ ( _ : < [ } | 1 2 3 ^ 4 #       ",
"      # - ^ 5 6 7 8 9 0 a b c d ^ e #       ",
"      # f ^ g h i j k l m n o p ^ q #       ",
"      # r ^ s t u v w x y z A B ^ C #       ",
"      # ) ^ D 6 E F G H I J K L ^ M #       ",
"      # N ^ F O h P Q R S T U V ^ W #       ",
"      # X ^ Y Z `  ...+.@.#.$.%.^ &.#       ",
"      # / ^ ^ ^ ^ ^ ^ ^ ^ ^ ^ ^ ^ *.#       ",
"      # =.-.;.>.,.'.).!.W ~.{.].^./.+       ",
"      (.+ + + + + + + + + + + + + + _.      ",
"                                            ",
"                                            ",
"                                            ",
"                                            ",
"                                            "};
