/* XPM */
static char * icewm_xpm[] = {
"65 22 225 2",
"  	c #FDFDFD",
". 	c #F4F4F4",
"+ 	c #FCFCFC",
"@ 	c #F9F9F9",
"# 	c #DCDBDD",
"$ 	c #CDCACE",
"% 	c #F1F1F1",
"& 	c #F6F6F6",
"* 	c #F5F5F5",
"= 	c #F2F2F2",
"- 	c #EFEFEF",
"; 	c #755D7D",
"> 	c #715179",
", 	c #89798E",
"' 	c #DBD9DB",
") 	c #F8F8F8",
"! 	c #D8CED1",
"~ 	c #DCD5D7",
"{ 	c #B9B3BB",
"] 	c #7F5F84",
"^ 	c #B08AAE",
"/ 	c #845E88",
"( 	c #694B71",
"_ 	c #F0F0F0",
": 	c #E1DDDF",
"< 	c #B57D8F",
"[ 	c #A83B69",
"} 	c #A43E68",
"| 	c #E9E8E9",
"1 	c #E6E5E6",
"2 	c #6A4C73",
"3 	c #A57FA4",
"4 	c #7A597F",
"5 	c #ADA5AF",
"6 	c #F3F3F3",
"7 	c #AA5B77",
"8 	c #BB3373",
"9 	c #E4609A",
"0 	c #BD477B",
"a 	c #C19EA9",
"b 	c #EAEAEA",
"c 	c #A196A4",
"d 	c #856189",
"e 	c #A47EA3",
"f 	c #8E6890",
"g 	c #6D5174",
"h 	c #EAE9EA",
"i 	c #FAFAFA",
"j 	c #C9B3B9",
"k 	c #B03F6F",
"l 	c #DE4F90",
"m 	c #DF5B95",
"n 	c #9F3663",
"o 	c #C2BDC0",
"p 	c #6B4C73",
"q 	c #906E90",
"r 	c #896689",
"s 	c #674C6D",
"t 	c #B8B5B9",
"u 	c #E9E9E9",
"v 	c #FBFBFB",
"w 	c #ECECEC",
"x 	c #A75271",
"y 	c #C63078",
"z 	c #DD4E8F",
"A 	c #B43C73",
"B 	c #6F476E",
"C 	c #86608A",
"D 	c #886589",
"E 	c #2A4D87",
"F 	c #204A87",
"G 	c #556995",
"H 	c #D5C9CC",
"I 	c #A63B66",
"J 	c #D43A82",
"K 	c #CB4683",
"L 	c #793764",
"M 	c #65436E",
"N 	c #6C4D71",
"O 	c #789ECA",
"P 	c #7094BD",
"Q 	c #6D90B8",
"R 	c #779EC9",
"S 	c #789FCB",
"T 	c #B2788B",
"U 	c #B9266B",
"V 	c #D43982",
"W 	c #C23679",
"X 	c #904A6A",
"Y 	c #807484",
"Z 	c #1E4781",
"` 	c #436CA0",
" .	c #416E72",
"..	c #426D7A",
"+.	c #4570A5",
"@.	c #4A78B1",
"#.	c #D4D0D1",
"$.	c #A13160",
"%.	c #B9226A",
"&.	c #A23562",
"*.	c #A4838D",
"=.	c #C4C3C3",
"-.	c #3D576D",
";.	c #3D6E29",
">.	c #4C7E1B",
",.	c #447815",
"'.	c #204571",
").	c #1F4984",
"!.	c #546895",
"~.	c #F6F5F4",
"{.	c #EBEAE9",
"].	c #AC4C4C",
"^.	c #A40000",
"/.	c #950000",
"(.	c #980830",
"_.	c #9C0C47",
":.	c #880312",
"<.	c #933F3B",
"[.	c #B7A7A3",
"}.	c #617E4F",
"|.	c #679031",
"1.	c #A2C260",
"2.	c #729B41",
"3.	c #9AA892",
"4.	c #E1E0DF",
"5.	c #F3F3F2",
"6.	c #E8E8E7",
"7.	c #DF6D6D",
"8.	c #D76969",
"9.	c #C66161",
"0.	c #C46060",
"a.	c #BC5C59",
"b.	c #CB5804",
"c.	c #D26E2C",
"d.	c #C3734A",
"e.	c #6E7832",
"f.	c #8BAA4D",
"g.	c #99B958",
"h.	c #548133",
"i.	c #D5D7D4",
"j.	c #EFEFEE",
"k.	c #F2F2F1",
"l.	c #E7E7E6",
"m.	c #CB4343",
"n.	c #C14040",
"o.	c #B83C3C",
"p.	c #C24D20",
"q.	c #D8741C",
"r.	c #FBB353",
"s.	c #E68629",
"t.	c #C95F0C",
"u.	c #6B8F32",
"v.	c #92B251",
"w.	c #7AA23F",
"x.	c #829A75",
"y.	c #F1F1F0",
"z.	c #E6E6E5",
"A.	c #A83A39",
"B.	c #9D0000",
"C.	c #990A00",
"D.	c #CE5C04",
"E.	c #F5A748",
"F.	c #FAA844",
"G.	c #DE7A31",
"H.	c #BA8E79",
"I.	c #527A35",
"J.	c #8CB046",
"K.	c #96B851",
"L.	c #5B873A",
"M.	c #C3C8C1",
"N.	c #EBEBEA",
"O.	c #F0F0EF",
"P.	c #E5E5E4",
"Q.	c #DBDBDA",
"R.	c #CD9582",
"S.	c #E28633",
"T.	c #FAA742",
"U.	c #F19129",
"V.	c #D06A39",
"W.	c #D4D4D2",
"X.	c #7E9671",
"Y.	c #69932D",
"Z.	c #7CA43B",
"`.	c #64884E",
" +	c #E4E4E3",
".+	c #E9E9E8",
"++	c #D8CDCA",
"@+	c #D16B32",
"#+	c #F8A33E",
"$+	c #F89B31",
"%+	c #D67035",
"&+	c #D4B9B2",
"*+	c #E1E1E0",
"=+	c #D1D3CF",
"-+	c #517F31",
";+	c #68942A",
">+	c #548135",
",+	c #93A58A",
"'+	c #EAEAE9",
")+	c #EEEEED",
"!+	c #EDEDEC",
"~+	c #E3E3E2",
"{+	c #D18568",
"]+	c #E88829",
"^+	c #F89A30",
"/+	c #E97F15",
"(+	c #D17B5A",
"_+	c #E2E2E1",
":+	c #A3B09D",
"<+	c #779269",
"[+	c #CBCEC9",
"}+	c #D3A99D",
"|+	c #D0682E",
"1+	c #E57B1E",
"2+	c #D16931",
"3+	c #D6C9C5",
"4+	c #D7D0CD",
"5+	c #D18971",
"6+	c #D19785",
"7+	c #ECECEB",
"8+	c #ECEBEA",
"9+	c #E6E5E4",
"0+	c #E0DFDE",
"a+	c #E8E7E6",
"b+	c #EAE9E8",
"                                                                  . . +                                                           ",
"                                                                @ # $ % &                                                         ",
"                                                      * = +     - ; > , ' = @                                                     ",
"                                                  ) = ! ~ *   & { ] ^ / ( _ @                                                     ",
"+ + + + + + + + + + + + + + + + + + + + + + + @ = : < [ } | @ 1 2 3 3 4 5 6 + + + + + + + + + + + + + + + + + + + + + + + + + + + ",
"+ + + + + + + + + + + + + + + + + + + + + + + ) - 7 8 9 0 a b c d e f g h i + + + + + + + + + + + + + + + + + + + + + + + + + + + ",
"+ + + + + + + + + + + + + + + + + + + + + + + + = j k l m n o p q r s t u _ _ _ _ _ + + + + + + + + + + + + + + + + + + + + + + + ",
"v v v v v v v v v v v v v v v v v v v v v v v v ) w x y z A B C D E F F F F F F G - v v v v v v v v v v v v v v v v v v v v v v v ",
"v v v v v v v v v v v v v v v v v v v v v v v v v 6 H I J K L M N F O P Q R S S F - v v v v v v v v v v v v v v v v v v v v v v v ",
"v v v v v v v v v v v v v v v v v v v v v v v v v i - T U V W X Y Z `  ...+.@.@.F - v v v v v v v v v v v v v v v v v v v v v v v ",
"v v v v v v v v v v v v v v v v v v v v v v v - - - u #.$.%.&.*.=.-.;.>.,.'.).F !.- v v v v v v v v v v v v v v v v v v v v v v v ",
"~.~.~.~.~.~.~.~.~.~.~.~.~.~.~.~.~.~.~.~.~.~.~.{.].^.^./.(._.:.<.[.}.|.1.2.3.4.{.{.{.~.~.~.~.~.~.~.~.~.~.~.~.~.~.~.~.~.~.~.~.~.~.~.",
"5.5.5.5.5.5.5.5.5.5.5.5.5.5.5.5.5.5.5.5.5.5.5.6.^.7.7.8.9.0.a.b.c.d.e.f.g.h.i.j.5.5.5.5.5.5.5.5.5.5.5.5.5.5.5.5.5.5.5.5.5.5.5.5.5.",
"k.k.k.k.k.k.k.k.k.k.k.k.k.k.k.k.k.k.k.k.k.k.k.l.^.m.m.m.n.o.p.q.r.s.t.u.v.w.x.6.k.k.k.k.k.k.k.k.k.k.k.k.k.k.k.k.k.k.k.k.k.k.k.k.k.",
"y.y.y.y.y.y.y.y.y.y.y.y.y.y.y.y.y.y.y.y.y.y.y.z.A.^.^.^.B.C.D.E.F.G.H.I.J.K.L.M.N.y.y.y.y.y.y.y.y.y.y.y.y.y.y.y.y.y.y.y.y.y.y.y.y.",
"O.O.O.O.O.O.O.O.O.O.O.O.O.O.O.O.O.O.O.O.O.O.O.P.P.P.P.P.Q.R.S.T.U.V.W.X.Y.J.Z.`. +j.O.O.O.O.O.O.O.O.O.O.O.O.O.O.O.O.O.O.O.O.O.O.O.",
"j.j.j.j.j.j.j.j.j.j.j.j.j.j.j.j.j.j.j.j.j.j.j.j.j.j.j..+++@+#+$+%+&+*+=+-+;+>+,+*+'+j.j.j.j.j.j.j.j.j.j.j.j.j.j.j.j.j.j.j.j.j.j.j.",
")+)+)+)+)+)+)+)+)+)+)+)+)+)+)+)+)+)+)+)+)+)+)+)+)+)+!+~+{+]+^+/+(+_+!+ +:+<+[+ +'+)+)+)+)+)+)+)+)+)+)+)+)+)+)+)+)+)+)+)+)+)+)+)+)+",
")+)+)+)+)+)+)+)+)+)+)+)+)+)+)+)+)+)+)+)+)+)+)+)+)+)+.+_+}+|+1+2+3+6.)+'+_+~+6.)+)+)+)+)+)+)+)+)+)+)+)+)+)+)+)+)+)+)+)+)+)+)+)+)+)+",
"!+!+!+!+!+!+!+!+!+!+!+!+!+!+!+!+!+!+!+!+!+!+!+!+!+!+!+.+~+4+5+6+~+!+!+!+6.7+!+!+!+!+!+!+!+!+!+!+!+!+!+!+!+!+!+!+!+!+!+!+!+!+!+!+!+",
"8+8+8+8+8+8+8+8+8+8+8+8+8+8+8+8+8+8+8+8+8+8+8+8+8+8+8+8+8+9+4.0+a+8+8+8+8+8+8+8+8+8+8+8+8+8+8+8+8+8+8+8+8+8+8+8+8+8+8+8+8+8+8+8+8+",
"{.{.{.{.{.{.{.{.{.{.{.{.{.{.{.{.{.{.{.{.{.{.{.{.{.{.{.{.{.{.b+9+{.{.{.{.{.{.{.{.{.{.{.{.{.{.{.{.{.{.{.{.{.{.{.{.{.{.{.{.{.{.{.{.{."};
