/* XPM */
static char * icewm_xpm[] = {
"66 24 226 2",
"  	c None",
". 	c #FDFDFD",
"+ 	c #F4F4F4",
"@ 	c #FCFCFC",
"# 	c #F9F9F9",
"$ 	c #DCDBDD",
"% 	c #CDCACE",
"& 	c #F1F1F1",
"* 	c #F6F6F6",
"= 	c #F5F5F5",
"- 	c #F2F2F2",
"; 	c #EFEFEF",
"> 	c #755D7D",
", 	c #715179",
"' 	c #89798E",
") 	c #DBD9DB",
"! 	c #F8F8F8",
"~ 	c #D8CED1",
"{ 	c #DCD5D7",
"] 	c #B9B3BB",
"^ 	c #7F5F84",
"/ 	c #B08AAE",
"( 	c #845E88",
"_ 	c #694B71",
": 	c #F0F0F0",
"< 	c #E1DDDF",
"[ 	c #B57D8F",
"} 	c #A83B69",
"| 	c #A43E68",
"1 	c #E9E8E9",
"2 	c #E6E5E6",
"3 	c #6A4C73",
"4 	c #A57FA4",
"5 	c #7A597F",
"6 	c #ADA5AF",
"7 	c #F3F3F3",
"8 	c #AA5B77",
"9 	c #BB3373",
"0 	c #E4609A",
"a 	c #BD477B",
"b 	c #C19EA9",
"c 	c #EAEAEA",
"d 	c #A196A4",
"e 	c #856189",
"f 	c #A47EA3",
"g 	c #8E6890",
"h 	c #6D5174",
"i 	c #EAE9EA",
"j 	c #FAFAFA",
"k 	c #C9B3B9",
"l 	c #B03F6F",
"m 	c #DE4F90",
"n 	c #DF5B95",
"o 	c #9F3663",
"p 	c #C2BDC0",
"q 	c #6B4C73",
"r 	c #906E90",
"s 	c #896689",
"t 	c #674C6D",
"u 	c #B8B5B9",
"v 	c #E9E9E9",
"w 	c #FBFBFB",
"x 	c #ECECEC",
"y 	c #A75271",
"z 	c #C63078",
"A 	c #DD4E8F",
"B 	c #B43C73",
"C 	c #6F476E",
"D 	c #86608A",
"E 	c #886589",
"F 	c #2A4D87",
"G 	c #204A87",
"H 	c #556995",
"I 	c #D5C9CC",
"J 	c #A63B66",
"K 	c #D43A82",
"L 	c #CB4683",
"M 	c #793764",
"N 	c #65436E",
"O 	c #6C4D71",
"P 	c #789ECA",
"Q 	c #7094BD",
"R 	c #6D90B8",
"S 	c #779EC9",
"T 	c #789FCB",
"U 	c #B2788B",
"V 	c #B9266B",
"W 	c #D43982",
"X 	c #C23679",
"Y 	c #904A6A",
"Z 	c #807484",
"` 	c #1E4781",
" .	c #436CA0",
"..	c #416E72",
"+.	c #426D7A",
"@.	c #4570A5",
"#.	c #4A78B1",
"$.	c #D4D0D1",
"%.	c #A13160",
"&.	c #B9226A",
"*.	c #A23562",
"=.	c #A4838D",
"-.	c #C4C3C3",
";.	c #3D576D",
">.	c #3D6E29",
",.	c #4C7E1B",
"'.	c #447815",
").	c #204571",
"!.	c #1F4984",
"~.	c #546895",
"{.	c #F6F5F4",
"].	c #EBEAE9",
"^.	c #AC4C4C",
"/.	c #A40000",
"(.	c #950000",
"_.	c #980830",
":.	c #9C0C47",
"<.	c #880312",
"[.	c #933F3B",
"}.	c #B7A7A3",
"|.	c #617E4F",
"1.	c #679031",
"2.	c #A2C260",
"3.	c #729B41",
"4.	c #9AA892",
"5.	c #E1E0DF",
"6.	c #F3F3F2",
"7.	c #E8E8E7",
"8.	c #DF6D6D",
"9.	c #D76969",
"0.	c #C66161",
"a.	c #C46060",
"b.	c #BC5C59",
"c.	c #CB5804",
"d.	c #D26E2C",
"e.	c #C3734A",
"f.	c #6E7832",
"g.	c #8BAA4D",
"h.	c #99B958",
"i.	c #548133",
"j.	c #D5D7D4",
"k.	c #EFEFEE",
"l.	c #F2F2F1",
"m.	c #E7E7E6",
"n.	c #CB4343",
"o.	c #C14040",
"p.	c #B83C3C",
"q.	c #C24D20",
"r.	c #D8741C",
"s.	c #FBB353",
"t.	c #E68629",
"u.	c #C95F0C",
"v.	c #6B8F32",
"w.	c #92B251",
"x.	c #7AA23F",
"y.	c #829A75",
"z.	c #F1F1F0",
"A.	c #E6E6E5",
"B.	c #A83A39",
"C.	c #9D0000",
"D.	c #990A00",
"E.	c #CE5C04",
"F.	c #F5A748",
"G.	c #FAA844",
"H.	c #DE7A31",
"I.	c #BA8E79",
"J.	c #527A35",
"K.	c #8CB046",
"L.	c #96B851",
"M.	c #5B873A",
"N.	c #C3C8C1",
"O.	c #EBEBEA",
"P.	c #F0F0EF",
"Q.	c #E5E5E4",
"R.	c #DBDBDA",
"S.	c #CD9582",
"T.	c #E28633",
"U.	c #FAA742",
"V.	c #F19129",
"W.	c #D06A39",
"X.	c #D4D4D2",
"Y.	c #7E9671",
"Z.	c #69932D",
"`.	c #7CA43B",
" +	c #64884E",
".+	c #E4E4E3",
"++	c #E9E9E8",
"@+	c #D8CDCA",
"#+	c #D16B32",
"$+	c #F8A33E",
"%+	c #F89B31",
"&+	c #D67035",
"*+	c #D4B9B2",
"=+	c #E1E1E0",
"-+	c #D1D3CF",
";+	c #517F31",
">+	c #68942A",
",+	c #548135",
"'+	c #93A58A",
")+	c #EAEAE9",
"!+	c #EEEEED",
"~+	c #EDEDEC",
"{+	c #E3E3E2",
"]+	c #D18568",
"^+	c #E88829",
"/+	c #F89A30",
"(+	c #E97F15",
"_+	c #D17B5A",
":+	c #E2E2E1",
"<+	c #A3B09D",
"[+	c #779269",
"}+	c #CBCEC9",
"|+	c #D3A99D",
"1+	c #D0682E",
"2+	c #E57B1E",
"3+	c #D16931",
"4+	c #D6C9C5",
"5+	c #D7D0CD",
"6+	c #D18971",
"7+	c #D19785",
"8+	c #ECECEB",
"9+	c #ECEBEA",
"0+	c #E6E5E4",
"a+	c #E0DFDE",
"b+	c #E8E7E6",
"c+	c #EAE9E8",
"                                                                                                                                    ",
"  . . . . . . . . . . . . . . . . . . . . . . . . . . . . . . . . . + + @ . . . . . . . . . . . . . . . . . . . . . . . . . . . . . ",
"  . . . . . . . . . . . . . . . . . . . . . . . . . . . . . . . . # $ % & * . . . . . . . . . . . . . . . . . . . . . . . . . . . . ",
"  . . . . . . . . . . . . . . . . . . . . . . . . . . . = - @ . . ; > , ' ) - # . . . . . . . . . . . . . . . . . . . . . . . . . . ",
"  . . . . . . . . . . . . . . . . . . . . . . . . . ! - ~ { = . * ] ^ / ( _ : # . . . . . . . . . . . . . . . . . . . . . . . . . . ",
"  @ @ @ @ @ @ @ @ @ @ @ @ @ @ @ @ @ @ @ @ @ @ @ # - < [ } | 1 # 2 3 4 4 5 6 7 @ @ @ @ @ @ @ @ @ @ @ @ @ @ @ @ @ @ @ @ @ @ @ @ @ @ @ ",
"  @ @ @ @ @ @ @ @ @ @ @ @ @ @ @ @ @ @ @ @ @ @ @ ! ; 8 9 0 a b c d e f g h i j @ @ @ @ @ @ @ @ @ @ @ @ @ @ @ @ @ @ @ @ @ @ @ @ @ @ @ ",
"  @ @ @ @ @ @ @ @ @ @ @ @ @ @ @ @ @ @ @ @ @ @ @ @ - k l m n o p q r s t u v : : : : : @ @ @ @ @ @ @ @ @ @ @ @ @ @ @ @ @ @ @ @ @ @ @ ",
"  w w w w w w w w w w w w w w w w w w w w w w w w ! x y z A B C D E F G G G G G G H ; w w w w w w w w w w w w w w w w w w w w w w w ",
"  w w w w w w w w w w w w w w w w w w w w w w w w w 7 I J K L M N O G P Q R S T T G ; w w w w w w w w w w w w w w w w w w w w w w w ",
"  w w w w w w w w w w w w w w w w w w w w w w w w w j ; U V W X Y Z `  ...+.@.#.#.G ; w w w w w w w w w w w w w w w w w w w w w w w ",
"  w w w w w w w w w w w w w w w w w w w w w w w ; ; ; v $.%.&.*.=.-.;.>.,.'.).!.G ~.; w w w w w w w w w w w w w w w w w w w w w w w ",
"  {.{.{.{.{.{.{.{.{.{.{.{.{.{.{.{.{.{.{.{.{.{.{.].^././.(._.:.<.[.}.|.1.2.3.4.5.].].].{.{.{.{.{.{.{.{.{.{.{.{.{.{.{.{.{.{.{.{.{.{.{.",
"  6.6.6.6.6.6.6.6.6.6.6.6.6.6.6.6.6.6.6.6.6.6.6.7./.8.8.9.0.a.b.c.d.e.f.g.h.i.j.k.6.6.6.6.6.6.6.6.6.6.6.6.6.6.6.6.6.6.6.6.6.6.6.6.6.",
"  l.l.l.l.l.l.l.l.l.l.l.l.l.l.l.l.l.l.l.l.l.l.l.m./.n.n.n.o.p.q.r.s.t.u.v.w.x.y.7.l.l.l.l.l.l.l.l.l.l.l.l.l.l.l.l.l.l.l.l.l.l.l.l.l.",
"  z.z.z.z.z.z.z.z.z.z.z.z.z.z.z.z.z.z.z.z.z.z.z.A.B./././.C.D.E.F.G.H.I.J.K.L.M.N.O.z.z.z.z.z.z.z.z.z.z.z.z.z.z.z.z.z.z.z.z.z.z.z.z.",
"  P.P.P.P.P.P.P.P.P.P.P.P.P.P.P.P.P.P.P.P.P.P.P.Q.Q.Q.Q.Q.R.S.T.U.V.W.X.Y.Z.K.`. +.+k.P.P.P.P.P.P.P.P.P.P.P.P.P.P.P.P.P.P.P.P.P.P.P.",
"  k.k.k.k.k.k.k.k.k.k.k.k.k.k.k.k.k.k.k.k.k.k.k.k.k.k.k.++@+#+$+%+&+*+=+-+;+>+,+'+=+)+k.k.k.k.k.k.k.k.k.k.k.k.k.k.k.k.k.k.k.k.k.k.k.",
"  !+!+!+!+!+!+!+!+!+!+!+!+!+!+!+!+!+!+!+!+!+!+!+!+!+!+~+{+]+^+/+(+_+:+~+.+<+[+}+.+)+!+!+!+!+!+!+!+!+!+!+!+!+!+!+!+!+!+!+!+!+!+!+!+!+",
"  !+!+!+!+!+!+!+!+!+!+!+!+!+!+!+!+!+!+!+!+!+!+!+!+!+!+++:+|+1+2+3+4+7.!+)+:+{+7.!+!+!+!+!+!+!+!+!+!+!+!+!+!+!+!+!+!+!+!+!+!+!+!+!+!+",
"  ~+~+~+~+~+~+~+~+~+~+~+~+~+~+~+~+~+~+~+~+~+~+~+~+~+~+~+++{+5+6+7+{+~+~+~+7.8+~+~+~+~+~+~+~+~+~+~+~+~+~+~+~+~+~+~+~+~+~+~+~+~+~+~+~+",
"  9+9+9+9+9+9+9+9+9+9+9+9+9+9+9+9+9+9+9+9+9+9+9+9+9+9+9+9+9+0+5.a+b+9+9+9+9+9+9+9+9+9+9+9+9+9+9+9+9+9+9+9+9+9+9+9+9+9+9+9+9+9+9+9+9+",
"  ].].].].].].].].].].].].].].].].].].].].].].].].].].].].].].c+0+].].].].].].].].].].].].].].].].].].].].].].].].].].].].].].].].].",
"                                                                                                                                    "};
