/* XPM */
static char * taskbarbg_xpm[] = {
"38 29 22 1",
" 	c #918E8C",
".	c #FEFEFE",
"+	c #FDFDFD",
"@	c #FCFCFC",
"#	c #FBFBFB",
"$	c #F6F5F4",
"%	c #F4F3F3",
"&	c #F3F3F2",
"*	c #F3F4F3",
"=	c #F3F2F2",
"-	c #F2F2F1",
";	c #F2F2F2",
">	c #F1F1F0",
",	c #F0F0EF",
"'	c #EFEFEE",
")	c #EEEEED",
"!	c #EDEDEC",
"~	c #ECEBEA",
"{	c #EBEAE9",
"]	c #EAE9E8",
"^	c #E9E8E7",
"/	c #E8E7E6",
"                                      ",
"......................................",
"......................................",
"......................................",
"++++++++++++++++++++++++++++++++++++++",
"++++++++++++++++++++++++++++++++++++++",
"++++++++++++++++++++++++++++++++++++++",
"++++++++++++++++++++++++++++++++++++++",
"@@@@@@@@@@@@@@@@@@@@@@@@@@@@@@@@@@@@@@",
"@@@@@@@@@@@@@@@@@@@@@@@@@@@@@@@@@@@@@@",
"@@@@@@@@@@@@@@@@@@@@@@@@@@@@@@@@@@@@@@",
"######################################",
"######################################",
"######################################",
"######################################",
"$$$$$$$$$$$$$$$$$$$$$$$$$$$$$$$$$$$$$$",
"%&&&&&&&&&&&&&&&&&&&&&&&&&&&&&&&&&&&&*",
"=------------------------------------;",
">>>>>>>>>>>>>>>>>>>>>>>>>>>>>>>>>>>>>>",
",,,,,,,,,,,,,,,,,,,,,,,,,,,,,,,,,,,,,,",
"''''''''''''''''''''''''''''''''''''''",
"))))))))))))))))))))))))))))))))))))))",
"))))))))))))))))))))))))))))))))))))))",
"!!!!!!!!!!!!!!!!!!!!!!!!!!!!!!!!!!!!!!",
"~~~~~~~~~~~~~~~~~~~~~~~~~~~~~~~~~~~~~~",
"{{{{{{{{{{{{{{{{{{{{{{{{{{{{{{{{{{{{{{",
"]]]]]]]]]]]]]]]]]]]]]]]]]]]]]]]]]]]]]]",
"^^^^^^^^^^^^^^^^^^^^^^^^^^^^^^^^^^^^^^",
"//////////////////////////////////////"};
