/* XPM */
static char * taskbuttonactive_xpm[] = {
"65 28 105 2",
"  	c #FEFEFE",
". 	c #E6E6E6",
"+ 	c #D8D8D7",
"@ 	c #C1C0BF",
"# 	c #918E8C",
"$ 	c #C3C2C1",
"% 	c #DDDCDC",
"& 	c #FDFDFD",
"* 	c #E5E5E5",
"= 	c #AFADAC",
"- 	c #CDCAC8",
"; 	c #AFADAB",
"> 	c #C4C2C1",
", 	c #CBC8C6",
"' 	c #CFCDCA",
") 	c #D2D0CD",
"! 	c #D1D0CD",
"~ 	c #CCC9C7",
"{ 	c #D0CDCB",
"] 	c #D7D4D2",
"^ 	c #D6D3D1",
"/ 	c #D6D4D2",
"( 	c #D5D3D1",
"_ 	c #FCFCFC",
": 	c #E4E4E4",
"< 	c #CAC8C5",
"[ 	c #CECCCA",
"} 	c #D4D2D0",
"| 	c #CAC7C5",
"1 	c #CECBC9",
"2 	c #D3D1D0",
"3 	c #C9C6C4",
"4 	c #CDCBC8",
"5 	c #D3D1CF",
"6 	c #D2D0CF",
"7 	c #FBFBFB",
"8 	c #E3E3E3",
"9 	c #CCCAC7",
"0 	c #D2D0CE",
"a 	c #D1D0CE",
"b 	c #D1CFCE",
"c 	c #C8C5C3",
"d 	c #CBC9C7",
"e 	c #D0CECC",
"f 	c #CFCECC",
"g 	c #CAC8C6",
"h 	c #CFCDCB",
"i 	c #C7C4C2",
"j 	c #CECDCB",
"k 	c #F6F5F4",
"l 	c #DFDEDD",
"m 	c #C4C1BE",
"n 	c #C6C4C1",
"o 	c #C9C7C5",
"p 	c #F4F3F3",
"q 	c #DCDCDB",
"r 	c #C3C0BD",
"s 	c #C6C3C0",
"t 	c #C9C7C4",
"u 	c #F3F4F3",
"v 	c #F3F2F2",
"w 	c #DBDBDA",
"x 	c #C3BFBD",
"y 	c #C5C3BF",
"z 	c #C8C6C3",
"A 	c #F2F2F2",
"B 	c #F1F1F0",
"C 	c #DADAD9",
"D 	c #C2BFBC",
"E 	c #C4C2BF",
"F 	c #C7C5C2",
"G 	c #F0F0EF",
"H 	c #D9D9D9",
"I 	c #C1BEBC",
"J 	c #EFEFEE",
"K 	c #D9D9D8",
"L 	c #C1BEBB",
"M 	c #C4C2C0",
"N 	c #EEEEED",
"O 	c #C0BDBB",
"P 	c #C2C0BD",
"Q 	c #C3C1BE",
"R 	c #C0BDBA",
"S 	c #C1BFBC",
"T 	c #EDEDEC",
"U 	c #D7D7D6",
"V 	c #C0BCBA",
"W 	c #ECEBEA",
"X 	c #D6D5D4",
"Y 	c #C1BEBA",
"Z 	c #999795",
"` 	c #EBEAE9",
" .	c #D5D4D3",
"..	c #BAB8B6",
"+.	c #A9A7A6",
"@.	c #BFBDBA",
"#.	c #AAA8A5",
"$.	c #BCB9B8",
"%.	c #EAE9E8",
"&.	c #D4D3D2",
"*.	c #BDBAB9",
"=.	c #BDBBB9",
"-.	c #E9E8E7",
";.	c #D3D2D1",
">.	c #E8E7E6",
"                                                                                                                                  ",
"      . . . . . . . . . . . . . . . . . . . . . . . . . . . . . . . . . . . . . . . . . . . . . . . . . . . . . . . . . . .       ",
"    + @ # # # # # # # # # # # # # # # # # # # # # # # # # # # # # # # # # # # # # # # # # # # # # # # # # # # # # # # # # $ %     ",
"& * @ = - - - - - - - - - - - - - - - - - - - - - - - - - - - - - - - - - - - - - - - - - - - - - - - - - - - - - - - - - ; > * & ",
"& * # , ' ) ) ! ! ) ) ) ) ) ) ) ) ) ) ) ) ) ) ) ) ) ) ) ) ) ) ) ) ) ) ) ) ) ) ) ) ) ) ) ) ) ) ) ) ) ) ) ) ) ) ) ! ! ) ) ' , # * & ",
"& * # ~ { ] ] ^ ^ ] ] ] ] ] ] ] ] ] ] ] ] ] ] ] ] ] ] ] ] ] ] ] ] ] ] ] ] ] ] ] ] ] ] ] ] ] ] ] ] ] ] ] ] ] ] ] ^ ^ ] ] { ~ # * & ",
"& * # , ' / / ( ( / / / / / / / / / / / / / / / / / / / / / / / / / / / / / / / / / / / / / / / / / / / / / / / ( ( / / ' , # * & ",
"_ : # < [ ( ( } } ( ( ( ( ( ( ( ( ( ( ( ( ( ( ( ( ( ( ( ( ( ( ( ( ( ( ( ( ( ( ( ( ( ( ( ( ( ( ( ( ( ( ( ( ( ( ( } } ( ( [ < # : _ ",
"_ : # | 1 } } 2 2 } } } } } } } } } } } } } } } } } } } } } } } } } } } } } } } } } } } } } } } } } } } } } } } 2 2 } } 1 | # : _ ",
"_ : # 3 4 5 5 6 6 5 5 5 5 5 5 5 5 5 5 5 5 5 5 5 5 5 5 5 5 5 5 5 5 5 5 5 5 5 5 5 5 5 5 5 5 5 5 5 5 5 5 5 5 5 5 5 6 6 5 5 4 3 # : _ ",
"7 8 # 3 9 0 0 a a 0 0 0 0 0 0 0 0 0 0 0 0 0 0 0 0 0 0 0 0 0 0 0 0 0 0 0 0 0 0 0 0 0 0 0 0 0 0 0 0 0 0 0 0 0 0 0 b a 0 0 9 3 # 8 7 ",
"7 8 # c d e e f e e e e e e e e e e e e e e e e e e e e e e e e e e e e e e e e e e e e e e e e e e e e e e e e e e e e d c # 8 7 ",
"7 8 # c g h h h h h h h h h h h h h h h h h h h h h h h h h h h h h h h h h h h h h h h h h h h h h h h h h h h h h h h g c # 8 7 ",
"7 8 # i , h h j j h h h h h h h h h h h h h h h h h h h h h h h h h h h h h h h h h h h h h h h h h h h h h h h j j h h , i # 8 7 ",
"k l # m n < < o o < < < < < < < < < < < < < < < < < < < < < < < < < < < < < < < < < < < < < < < < < < < < < < < o o < < n m # l k ",
"p q # r s t t t t t t t t t t t t t t t t t t t t t t t t t t t t t t t t t t t t t t t t t t t t t t t t t t t t t t t s r # q u ",
"v w # x y z z z z z z z z z z z z z z z z z z z z z z z z z z z z z z z z z z z z z z z z z z z z z z z z z z z z z z z y x # w A ",
"B C # D E F F F F F F F F F F F F F F F F F F F F F F F F F F F F F F F F F F F F F F F F F F F F F F F F F F F F F F F E D # C B ",
"G H # I m n n n n n n n n n n n n n n n n n n n n n n n n n n n n n n n n n n n n n n n n n n n n n n n n n n n n n n n m I # H G ",
"J K # L r M M M M M M M M M M M M M M M M M M M M M M M M M M M M M M M M M M M M M M M M M M M M M M M M M M M M M M M r L # K J ",
"N + # O P Q Q Q Q Q Q Q Q Q Q Q Q Q Q Q Q Q Q Q Q Q Q Q Q Q Q Q Q Q Q Q Q Q Q Q Q Q Q Q Q Q Q Q Q Q Q Q Q Q Q Q Q Q Q Q P O # + N ",
"N + # R S r r r r r r r r r r r r r r r r r r r r r r r r r r r r r r r r r r r r r r r r r r r r r r r r r r r r r r r S R # + N ",
"T U # V L D D D D D D D D D D D D D D D D D D D D D D D D D D D D D D D D D D D D D D D D D D D D D D D D D D D D D D D L V # U T ",
"W X # O Y L L L L L L L L L L L L L L L L L L L L L L L L L L L L L L L L L L L L L L L L L L L L L L L L L L L L L L L Y O Z X W ",
"`  ...+.R R R @.@.R R R R R R R R R R R R R R R R R R R R R R R R R R R R R R R R R R R R R R R R R R R R R R R @.@.R R R #.$. .` ",
"%.%.&.*.# # # # # # # # # # # # # # # # # # # # # # # # # # # # # # # # # # # # # # # # # # # # # # # # # # # # # # # # # =.&.%.%.",
"-.-.-.;.;.;.;.;.;.;.;.;.;.;.;.;.;.;.;.;.;.;.;.;.;.;.;.;.;.;.;.;.;.;.;.;.;.;.;.;.;.;.;.;.;.;.;.;.;.;.;.;.;.;.;.;.;.;.;.;.;.;.-.-.-.",
">.>.>.>.>.>.>.>.>.>.>.>.>.>.>.>.>.>.>.>.>.>.>.>.>.>.>.>.>.>.>.>.>.>.>.>.>.>.>.>.>.>.>.>.>.>.>.>.>.>.>.>.>.>.>.>.>.>.>.>.>.>.>.>.>."};
