/* XPM */
static char * taskbuttonbg_xpm[] = {
"65 28 144 2",
"  	c #FEFEFE",
". 	c #E1E1E1",
"+ 	c #D3D3D2",
"@ 	c #C1C0BF",
"# 	c #918E8C",
"$ 	c #C3C2C1",
"% 	c #D8D7D7",
"& 	c #FDFDFD",
"* 	c #E0E0E0",
"= 	c #AFADAC",
"- 	c #FFFFFF",
"; 	c #FFFEFE",
"> 	c #FFFFFE",
", 	c #FEFFFF",
"' 	c #FEFFFE",
") 	c #FFFEFF",
"! 	c #AFADAB",
"~ 	c #C4C2C1",
"{ 	c #FEFEFD",
"] 	c #FDFEFD",
"^ 	c #FDFEFE",
"/ 	c #FEFDFE",
"( 	c #FEFDFD",
"_ 	c #FDFDFE",
": 	c #FEFEFF",
"< 	c #FCFCFC",
"[ 	c #DFDFDF",
"} 	c #FCFDFD",
"| 	c #FDFCFD",
"1 	c #FDFDFC",
"2 	c #FCFCFD",
"3 	c #FDFCFC",
"4 	c #FCFDFC",
"5 	c #FBFBFB",
"6 	c #DEDEDE",
"7 	c #FCFCFB",
"8 	c #FCFBFC",
"9 	c #FBFCFC",
"0 	c #FBFCFB",
"a 	c #FCFBFB",
"b 	c #FBFBFC",
"c 	c #F6F5F4",
"d 	c #DAD9D8",
"e 	c #FAFAF9",
"f 	c #F5F4F3",
"g 	c #F4F4F3",
"h 	c #F5F4F2",
"i 	c #F5F3F3",
"j 	c #F4F3F3",
"k 	c #D7D7D6",
"l 	c #FAF9F9",
"m 	c #F4F3F2",
"n 	c #F4F3F1",
"o 	c #F4F2F1",
"p 	c #F4F2F2",
"q 	c #F3F2F2",
"r 	c #F3F3F2",
"s 	c #F3F3F1",
"t 	c #F3F2F1",
"u 	c #F3F4F3",
"v 	c #D6D6D5",
"w 	c #F9F9F8",
"x 	c #F3F1F1",
"y 	c #F2F1F0",
"z 	c #F2F1F1",
"A 	c #F2F2F0",
"B 	c #F3F2F0",
"C 	c #F3F1F0",
"D 	c #F2F2F1",
"E 	c #F2F2F2",
"F 	c #F1F1F0",
"G 	c #D5D5D5",
"H 	c #F8F8F7",
"I 	c #F1F0EF",
"J 	c #F2F0EF",
"K 	c #F1F0F0",
"L 	c #F1F1EF",
"M 	c #F2F1EF",
"N 	c #F2F0F0",
"O 	c #F0F0EF",
"P 	c #D5D5D4",
"Q 	c #F8F7F7",
"R 	c #F0EFEE",
"S 	c #F0EFED",
"T 	c #F0EEEE",
"U 	c #EFEEEE",
"V 	c #EFEFEE",
"W 	c #D4D4D3",
"X 	c #F7F6F6",
"Y 	c #EFEDED",
"Z 	c #EFEEEC",
"` 	c #EFEEED",
" .	c #EEEEEC",
"..	c #EEEDEC",
"+.	c #EEEDED",
"@.	c #EFEDEC",
"#.	c #EEEEED",
"$.	c #EEEDEB",
"%.	c #EDECEB",
"&.	c #EDEDEB",
"*.	c #EDEDEC",
"=.	c #EDECEC",
"-.	c #EEECEB",
";.	c #EEECEC",
">.	c #F6F5F5",
",.	c #ECEBEA",
"'.	c #EDEBEA",
").	c #ECEBEB",
"!.	c #ECECEA",
"~.	c #D2D2D1",
"{.	c #F5F5F4",
"].	c #EBEAE9",
"^.	c #EBEAE8",
"/.	c #EBE9E9",
"(.	c #EAE9E8",
"_.	c #EAEAE9",
":.	c #EAEAE8",
"<.	c #EBE9E8",
"[.	c #D1D0CF",
"}.	c #F5F4F4",
"|.	c #E9E9E7",
"1.	c #E9E9E8",
"2.	c #EAE8E7",
"3.	c #EAE9E7",
"4.	c #EAE8E8",
"5.	c #E9E8E8",
"6.	c #E9E8E7",
"7.	c #999795",
"8.	c #D0CFCE",
"9.	c #BAB8B6",
"0.	c #A9A7A6",
"a.	c #E8E7E6",
"b.	c #E9E8E6",
"c.	c #E9E7E6",
"d.	c #E9E7E7",
"e.	c #E8E7E7",
"f.	c #E8E8E6",
"g.	c #E8E8E7",
"h.	c #AAA8A5",
"i.	c #BCB9B8",
"j.	c #CFCECD",
"k.	c #BDBAB9",
"l.	c #BDBBB9",
"m.	c #CECDCD",
"                                                                                                                                  ",
"      . . . . . . . . . . . . . . . . . . . . . . . . . . . . . . . . . . . . . . . . . . . . . . . . . . . . . . . . . . .       ",
"    + @ # # # # # # # # # # # # # # # # # # # # # # # # # # # # # # # # # # # # # # # # # # # # # # # # # # # # # # # # # $ %     ",
"& * @ = - - - - - - ; > - - - - - - - > - - - - - - - , > - - > > - - - ' - - - - - - - - ) - - - , > - - ) - - - - , ) - ! ~ * & ",
"& * # > { {   ] ^ {   ^   / { ] & & ( &   { ( / ^ { { / & ^ / { ( _ / & _   ] _ _ _ { { { { ] ] ] ( { / _ _ ^ (   ( ] ] ^ { # * & ",
"& * # : { & ( ^ { ^ & ] { ( { & & & & ] & _ & & & & & ( & ^ ] & / _ & & ^ & ^ & & ^ ] _ _ / & (   & &   ( ] ] ] & & & & ^ ] # * & ",
"& * #   & & & & & & & & & & & & & & & & & & & & & & ] & ( & & & & & & & & & & & & & _ & & & & & & & & & & & & & & & & & & & # * & ",
"< [ #   } & | | | & & & & & & 1 } } } & & & 2 & & } 1 & & 3 & 1 & 1 & & } & 2 & & | 1 & | 1 & & 2 } | | & & 4 | 1 | 1 4 | } # [ < ",
"< [ #   2 1 4 3 & < < | | 4 3 & 2 2 < < 4 2 1 3 | & | 1 4 | 4 | 1 < & 2 < 1 3 | | < } } 1 } 3 4 2 1 | < < & < 2 < 4 } 4 < 3 # [ < ",
"< [ #   4 < 4 < 2 3 2 < 3 < < < < < < 3 3 < 3 < < 2 < 3 3 < 2 4 2 < < 1 < 2 4 3 < < < < 1 < < | 4 3 1 < } 2 < < < } 4 < 3 < # [ < ",
"5 6 #   < 7 < < < < 8 9 < < < < 0 0 9 8 < < < 7 < < 8 < 8 < < 7 0 < 7 < < 8 < 9 < < < < < 9 < < < < < < < < 7 < 8 < 8 < < < # 6 5 ",
"5 6 # & a 8 < b 8 9 < a < < 7 9 5 5 b 8 7 8 9 < 7 7 8 < < < < 9 8 a 7 8 8 < 5 < < 7 < 9 9 a 0 9 0 9 8 a < 9 8 8 7 8 b b 8 7 # 6 5 ",
"5 6 # ] b 5 9 < 9 0 b 7 5 8 5 b 0 0 7 a 9 0 5 8 5 b b 5 0 9 b 0 9 5 8 a 5 7 5 a 5 5 9 5 a b 0 0 8 7 5 9 9 5 5 8 7 b 5 a 5 5 # 6 5 ",
"5 6 # & 5 5 0 5 5 b 5 5 5 5 5 5 5 5 b 5 5 5 5 5 5 5 5 5 5 5 5 0 5 5 a 5 5 5 b 5 5 5 5 5 5 b 5 5 5 5 5 5 5 5 5 5 5 5 5 5 5 5 # 6 5 ",
"c d # e f f f f f f f f f g f f f f f f f f f f f f f f h f f f f f f f f f f f f f f f f f f f f f f f f f f f f f g f f i # d c ",
"j k # l m m n n n n m m n n m o n n p p m p p m q p n m m m m r p p m p p n m o r p m m m p m m s t o m q m r p r t n r m n # k u ",
"q v # w x y z z z A A B B B C A D D D B y y x t D t y y C A B t C D z z x z z z t x D D y A t t x C y x y D z z B y A y y z # v E ",
"F G # H I J K I J I I K I J L L I I I I I J K L F I M M I N I N J I I I I I K I I I I I L L I I L I L L I I K J I M M I I K # G F ",
"O P # Q R S R T S R R R R S S R R R R R S U R R R R R R R R T R R R U R T S R R R R R R V R R R R R R R T V R R R V R V R R # P O ",
"V W # X Y Z `  ...Z Y ` ..Y  .+.Y Y ` ` ` Y Z Z  .` Z Y +.Z ` Z Z +.Z ` +. .Z ` @.` Y Y Y @.` +.` @.`  .` ` Y Y Z ` #.Z Z Y # W V ",
"#.+ # X $.$.%.&.*.%.=.$.$.&.=.%.&.&.%.-.-.;.&.&.&.&.=.*.%.%.=.%.%.-.-.&.%.=.%.;.&.%.&.&.&.%.;.=.%.%.-.%.&.=...%.%.&.&.-...%.# + #.",
"#.+ # >.,.'.).,.!.,.,.,.,.,.,.'.,.,.,.,.,.,.,.,.,.,.,.).'.!.!.,.,.,.,.,.,.,.,.,.,.).,.,.,.,.).,.'.!.,.).,.,.,.'.,.'.,.,.,.'.# + #.",
"*.~.# {.].^.].]././.].].(./.^.].].].^.].].].^._.].^.].].].^.].].:.].^.<.^.^.].].].].]._.].]._.].].].].].].].]._.<.].].].].].# ~.*.",
",.[.# }.|.1.1.(.2.1.2.2.2.|.1.|.2.2.(.|.|.2.3.1.(.(.3.4.2.2.1.5.4.3.3.4.4.5.1.(.4.1.|.5.6.4.2.1.(.|.2.3.5.4.(.|.5.4.(.(.(.2.7.[.,.",
"].8.9.0.a.b.a.b.a.c.d.c.a.e.f.c.e.e.e.a.a.b.g.b.a.c.e.e.g.a.f.e.b.a.g.a.f.a.d.f.6.e.d.g.a.a.b.a.a.a.a.b.g.f.e.a.f.a.a.e.c.h.i.8.].",
"(.(.j.k.# # # # # # # # # # # # # # # # # # # # # # # # # # # # # # # # # # # # # # # # # # # # # # # # # # # # # # # # # l.j.(.(.",
"6.6.6.m.m.m.m.m.m.m.m.m.m.m.m.m.m.m.m.m.m.m.m.m.m.m.m.m.m.m.m.m.m.m.m.m.m.m.m.m.m.m.m.m.m.m.m.m.m.m.m.m.m.m.m.m.m.m.m.m.m.m.6.6.6.",
"a.a.a.a.a.a.a.a.a.a.a.a.a.a.a.a.a.a.a.a.a.a.a.a.a.a.a.a.a.a.a.a.a.a.a.a.a.a.a.a.a.a.a.a.a.a.a.a.a.a.a.a.a.a.a.a.a.a.a.a.a.a.a.a.a."};
