/* XPM */
static char * toolbuttonbg_xpm[] = {
"1 28 17 1",
" 	c #FEFEFE",
".	c #FDFDFD",
"+	c #FCFCFC",
"@	c #FBFBFB",
"#	c #F6F5F4",
"$	c #F3F3F2",
"%	c #F2F2F1",
"&	c #F1F1F0",
"*	c #F0F0EF",
"=	c #EFEFEE",
"-	c #EEEEED",
";	c #EDEDEC",
">	c #ECEBEA",
",	c #EBEAE9",
"'	c #EAE9E8",
")	c #E9E8E7",
"!	c #E8E7E6",
" ",
" ",
" ",
".",
".",
".",
".",
"+",
"+",
"+",
"@",
"@",
"@",
"@",
"#",
"$",
"%",
"&",
"*",
"=",
"-",
"-",
";",
">",
",",
"'",
")",
"!"};
